<?xml version="1.0" encoding="UTF-8" standalone="no"?>
<!DOCTYPE svg PUBLIC "-//W3C//DTD SVG 1.1//EN" "http://www.w3.org/Graphics/SVG/1.1/DTD/svg11.dtd">
<!-- Created with Vectornator (http://vectornator.io/) -->
<svg height="100%" stroke-miterlimit="10" style="fill-rule:nonzero;clip-rule:evenodd;stroke-linecap:round;stroke-linejoin:round;" version="1.1" viewBox="0 0 865.76 682.89" width="100%" xml:space="preserve" xmlns="http://www.w3.org/2000/svg" xmlns:xlink="http://www.w3.org/1999/xlink">
<defs/>
<g id="Untitled">
<path d="M293.36 105.32L598.35 105.32L598.35 105.32L598.35 312.32L598.35 312.32L293.36 312.32L293.36 312.32L293.36 105.32L293.36 105.32Z" fill="#2f2e41" fill-rule="nonzero" opacity="1" stroke="none"/>
<path d="M293.36 105.32L598.35 105.32L598.35 105.32L598.35 312.32L598.35 312.32L293.36 312.32L293.36 312.32L293.36 105.32L293.36 105.32Z" fill="#ffffff" fill-rule="nonzero" opacity="0.5" stroke="none"/>
<path d="M296.61 109.22L595.1 109.22L595.1 109.22L595.1 308.43L595.1 308.43L296.61 308.43L296.61 308.43L296.61 109.22L296.61 109.22Z" fill="#f5f5f5" fill-rule="nonzero" opacity="1" stroke="none"/>
<path d="M318.58 386.58L382.05 386.61L390.84 429.4L327.04 429.41L318.58 386.58Z" fill="#2f2e41" fill-rule="nonzero" opacity="1" stroke="none"/>
<path d="M319.96 388.02L380.71 388.02L389.3 427.2L328.23 427.21L319.96 388.02Z" fill="#ffffff" fill-rule="nonzero" opacity="1" stroke="none"/>
</g>
<g id="freesvgillustration--background-complete--inject-552">
<path d="M426.94 435L151.94 435C147.452 434.989 143.82 431.348 143.82 426.86L143.82 40.2C143.858 35.7412 147.481 32.1453 151.94 32.14L426.94 32.14C431.43 32.14 435.07 35.7799 435.07 40.27L435.07 40.27L435.07 426.81C435.086 428.977 434.237 431.06 432.71 432.598C431.184 434.135 429.107 435 426.94 435ZM151.94 32.47C147.651 32.481 144.18 35.961 144.18 40.25L144.18 426.81C144.18 431.099 147.651 434.579 151.94 434.59L426.94 434.59C431.232 434.579 434.709 431.102 434.72 426.81L434.72 40.2C434.709 35.9078 431.232 32.431 426.94 32.42L151.94 32.47Z" fill="#ebebeb" fill-rule="nonzero" opacity="1" stroke="none"/>
<path d="M735 435L460 435C455.511 434.989 451.875 431.349 451.87 426.86L451.87 40.2C451.914 35.7396 455.539 32.1453 460 32.14L735 32.14C739.453 32.1562 743.066 35.7473 743.11 40.2L743.11 426.81C743.123 428.972 742.276 431.051 740.754 432.588C739.233 434.124 737.162 434.992 735 435ZM460 32.42C455.708 32.431 452.231 35.9078 452.22 40.2L452.22 426.81C452.231 431.102 455.708 434.579 460 434.59L735 434.59C739.294 434.584 742.774 431.104 742.78 426.81L742.78 40.2C742.769 35.9078 739.292 32.431 735 32.42L460 32.42Z" fill="#ebebeb" fill-rule="nonzero" opacity="1" stroke="none"/>
<path d="M636.48 171.44C633.53 169.93 631.063 167.623 629.36 164.78C625.901 158.747 625.901 151.333 629.36 145.3C631.065 142.454 633.531 140.14 636.48 138.62C639.658 136.999 643.183 136.178 646.75 136.23C649.96 136.169 653.146 136.8 656.09 138.08C658.761 139.265 661.092 141.101 662.87 143.42L655.22 150.26C653.436 147.659 650.513 146.071 647.36 145.99C645.069 145.887 642.844 146.772 641.25 148.42C638.172 152.248 638.172 157.702 641.25 161.53C642.844 163.178 645.069 164.063 647.36 163.96C650.516 163.89 653.444 162.3 655.22 159.69L662.87 166.51C661.107 168.844 658.772 170.683 656.09 171.85C653.146 173.133 649.961 173.768 646.75 173.71C643.193 173.801 639.667 173.022 636.48 171.44Z" fill="#e0e0e0" fill-rule="nonzero" opacity="1" stroke="none"/>
<path d="M692 159.41L683.52 159.41L683.52 167.62L674.26 167.62L674.26 159.41L665.79 159.41L665.79 150.67L674.26 150.67L674.26 142.46L683.52 142.46L683.52 150.67L692 150.67L692 159.41Z" fill="#e0e0e0" fill-rule="nonzero" opacity="1" stroke="none"/>
<path d="M252.6 276.32C250.771 275.386 249.24 273.959 248.18 272.2C246.057 268.482 246.057 263.918 248.18 260.2C249.246 258.446 250.776 257.021 252.6 256.08C254.561 255.103 256.73 254.616 258.92 254.66C260.879 254.631 262.822 255.02 264.62 255.8C266.269 256.52 267.706 257.653 268.79 259.09L264.08 263.36C262.979 261.766 261.177 260.801 259.24 260.77C257.831 260.707 256.463 261.25 255.48 262.26C253.58 264.618 253.58 267.982 255.48 270.34C256.461 271.354 257.831 271.897 259.24 271.83C261.177 271.799 262.979 270.834 264.08 269.24L268.79 273.52C267.692 274.943 266.26 276.073 264.62 276.81C262.82 277.581 260.879 277.969 258.92 277.95C256.712 277.93 254.542 277.37 252.6 276.32Z" fill="#e0e0e0" fill-rule="nonzero" opacity="1" stroke="none"/>
<path d="M286.78 268.9L281.56 268.9L281.56 274L275.86 274L275.86 268.9L270.65 268.9L270.65 263.51L275.86 263.51L275.86 258.46L281.56 258.46L281.56 263.51L286.78 263.51L286.78 268.9Z" fill="#e0e0e0" fill-rule="nonzero" opacity="1" stroke="none"/>
<path d="M463.28 78.94C461.67 78.1261 460.322 76.875 459.39 75.33C457.51 72.0611 457.51 68.0389 459.39 64.77C460.323 63.2214 461.671 61.9642 463.28 61.14C465.004 60.2618 466.915 59.8157 468.85 59.84C470.592 59.8099 472.32 60.1508 473.92 60.84C475.368 61.468 476.636 62.4476 477.61 63.69L473.45 67.4C472.474 65.9949 470.881 65.1461 469.17 65.12C467.926 65.0656 466.717 65.546 465.85 66.44C464.189 68.5228 464.189 71.4772 465.85 73.56C466.716 74.4566 467.924 74.9406 469.17 74.89C470.88 74.8502 472.468 74.0001 473.45 72.6L477.61 76.28C476.638 77.5236 475.369 78.5035 473.92 79.13C472.32 79.8195 470.592 80.1604 468.85 80.13C466.924 80.1945 465.012 79.7859 463.28 78.94Z" fill="#e0e0e0" fill-rule="nonzero" opacity="1" stroke="none"/>
<path d="M481.76 79.7C480.438 79.4295 479.168 78.9465 478 78.27L480.12 73.45C481.102 74.0088 482.15 74.4422 483.24 74.74C484.318 75.0571 485.436 75.2221 486.56 75.23C487.215 75.2724 487.873 75.1944 488.5 75C488.843 74.8806 489.077 74.5628 489.09 74.2C489.09 73.79 488.83 73.49 488.32 73.28C487.498 72.9938 486.656 72.7698 485.8 72.61C484.522 72.3625 483.263 72.0284 482.03 71.61C481.021 71.2463 480.12 70.6341 479.41 69.83C478.634 68.8838 478.238 67.6823 478.3 66.46C478.282 65.2703 478.631 64.1039 479.3 63.12C480.072 62.0451 481.143 61.221 482.38 60.75C483.972 60.13 485.672 59.8342 487.38 59.88C488.702 59.8814 490.02 60.029 491.31 60.32C492.507 60.5704 493.66 60.9985 494.73 61.59L492.73 66.36C491.056 65.4673 489.196 64.9808 487.3 64.94C485.61 64.94 484.77 65.35 484.77 66.18C484.77 66.56 485.01 66.85 485.51 67.05C486.323 67.3211 487.155 67.5284 488 67.67C489.276 67.9123 490.532 68.2465 491.76 68.67C492.782 69.0314 493.699 69.6394 494.43 70.44C495.211 71.3762 495.611 72.5722 495.55 73.79C495.572 74.9771 495.223 76.1415 494.55 77.12C493.766 78.1812 492.699 78.9993 491.47 79.48C489.881 80.1111 488.179 80.4072 486.47 80.35C484.88 80.3224 483.298 80.1042 481.76 79.7Z" fill="#e0e0e0" fill-rule="nonzero" opacity="1" stroke="none"/>
<path d="M500.08 79.7C498.754 79.4322 497.48 78.9492 496.31 78.27L498.42 73.45C499.405 74.0105 500.456 74.444 501.55 74.74C502.621 75.0579 503.732 75.2228 504.85 75.23C505.509 75.2743 506.17 75.1963 506.8 75C507.152 74.8916 507.395 74.5686 507.4 74.2C507.4 73.79 507.15 73.49 506.63 73.28C505.809 72.9913 504.966 72.7673 504.11 72.61C502.833 72.3578 501.574 72.0238 500.34 71.61C499.333 71.2425 498.433 70.6309 497.72 69.83C496.939 68.8862 496.543 67.6829 496.61 66.46C496.583 65.2691 496.933 64.1001 497.61 63.12C498.38 62.0475 499.447 61.2237 500.68 60.75C502.272 60.1294 503.972 59.8336 505.68 59.88C507.009 59.8804 508.334 60.028 509.63 60.32C510.827 60.5704 511.98 60.9985 513.05 61.59L511.05 66.36C509.372 65.4686 507.509 64.9822 505.61 64.94C503.91 64.94 503.07 65.35 503.07 66.18C503.07 66.56 503.33 66.85 503.83 67.05C504.635 67.3222 505.461 67.5295 506.3 67.67C507.577 67.9063 508.834 68.2406 510.06 68.67C511.085 69.0253 512.004 69.6342 512.73 70.44C513.52 71.3712 513.921 72.5709 513.85 73.79C513.874 74.9773 513.524 76.1421 512.85 77.12C512.066 78.1812 510.999 78.9993 509.77 79.48C508.18 80.1089 506.479 80.405 504.77 80.35C503.186 80.3223 501.612 80.1041 500.08 79.7Z" fill="#e0e0e0" fill-rule="nonzero" opacity="1" stroke="none"/>
<path d="M307.42 326.85C306.618 326.434 305.945 325.808 305.47 325.04C304.537 323.404 304.537 321.396 305.47 319.76C305.936 318.985 306.612 318.357 307.42 317.95C308.298 317.492 309.28 317.268 310.27 317.3C311.142 317.281 312.008 317.448 312.81 317.79C313.529 318.108 314.158 318.599 314.64 319.22L312.57 321.07C312.078 320.372 311.284 319.949 310.43 319.93C309.81 319.9 309.208 320.141 308.78 320.59C307.94 321.628 307.94 323.112 308.78 324.15C309.212 324.593 309.812 324.83 310.43 324.8C311.286 324.789 312.084 324.364 312.57 323.66L314.64 325.51C314.163 326.136 313.533 326.629 312.81 326.94C311.074 327.636 309.131 327.604 307.42 326.85Z" fill="#e0e0e0" fill-rule="nonzero" opacity="1" stroke="none"/>
<path d="M316.67 327.22C316.004 327.078 315.363 326.835 314.77 326.5L315.84 324.13C316.328 324.407 316.849 324.622 317.39 324.77C317.933 324.927 318.495 325.011 319.06 325.02C319.399 325.041 319.738 324.997 320.06 324.89C320.232 324.83 320.35 324.672 320.36 324.49C320.36 324.29 320.23 324.13 319.97 324.03C319.557 323.891 319.137 323.777 318.71 323.69C318.073 323.565 317.445 323.398 316.83 323.19C316.324 323.011 315.873 322.704 315.52 322.3C315.125 321.828 314.925 321.224 314.96 320.61C314.952 320.017 315.13 319.436 315.47 318.95C315.859 318.412 316.393 317.996 317.01 317.75C317.805 317.448 318.65 317.302 319.5 317.32C320.173 317.321 320.843 317.395 321.5 317.54C322.097 317.662 322.671 317.878 323.2 318.18L322.2 320.56C321.361 320.103 320.425 319.853 319.47 319.83C318.63 319.83 318.21 320.04 318.21 320.44C318.21 320.84 318.34 320.79 318.59 320.89C318.995 321.023 319.41 321.126 319.83 321.2C320.469 321.309 321.097 321.47 321.71 321.68C322.222 321.858 322.68 322.164 323.04 322.57C323.434 323.031 323.637 323.624 323.61 324.23C323.611 324.827 323.43 325.41 323.09 325.9C322.696 326.432 322.158 326.842 321.54 327.08C320.754 327.4 319.908 327.55 319.06 327.52C318.254 327.523 317.45 327.422 316.67 327.22Z" fill="#e0e0e0" fill-rule="nonzero" opacity="1" stroke="none"/>
<path d="M325.81 327.22C325.148 327.076 324.51 326.833 323.92 326.5L324.99 324.1C325.478 324.38 325.998 324.598 326.54 324.75C327.081 324.9 327.639 324.98 328.2 324.99C328.539 325.011 328.878 324.967 329.2 324.86C329.375 324.804 329.496 324.644 329.5 324.46C329.486 324.241 329.333 324.056 329.12 324C328.704 323.862 328.28 323.749 327.85 323.66C327.212 323.538 326.584 323.371 325.97 323.16C325.467 322.976 325.017 322.67 324.66 322.27C324.27 321.8 324.07 321.2 324.1 320.59C324.099 319.993 324.28 319.41 324.62 318.92C325.003 318.38 325.534 317.963 326.15 317.72C326.948 317.417 327.797 317.274 328.65 317.3C329.323 317.291 329.994 317.362 330.65 317.51C331.25 317.632 331.827 317.848 332.36 318.15L331.36 320.53C330.538 320.11 329.633 319.881 328.71 319.86C327.87 319.86 327.44 320.07 327.44 320.47C327.44 320.87 327.57 320.81 327.81 320.91C328.215 321.046 328.63 321.153 329.05 321.23C329.695 321.339 330.33 321.5 330.95 321.71C331.454 321.894 331.906 322.196 332.27 322.59C332.663 323.056 332.866 323.652 332.84 324.26C332.842 324.858 332.657 325.442 332.31 325.93C331.924 326.462 331.393 326.871 330.78 327.11C329.993 327.429 329.148 327.579 328.3 327.55C327.459 327.545 326.623 327.434 325.81 327.22Z" fill="#e0e0e0" fill-rule="nonzero" opacity="1" stroke="none"/>
<path d="M386.06 70.6C386.831 70.925 387.491 71.467 387.96 72.16C388.601 73.0946 388.845 74.2459 388.636 75.3601C388.428 76.4743 387.786 77.46 386.85 78.1C386.604 78.2726 386.339 78.4168 386.06 78.53C385.157 78.9037 384.187 79.0875 383.21 79.07L381.49 79.07L381.49 82L377.49 82L377.49 70L383.19 70C384.179 69.9918 385.157 70.1964 386.06 70.6ZM384.21 75.6C384.488 75.3435 384.638 74.9775 384.62 74.6C384.642 74.2218 384.491 73.854 384.21 73.6C383.865 73.3268 383.429 73.1945 382.99 73.23L381.56 73.23L381.56 76L383 76C383.438 76.0178 383.868 75.8756 384.21 75.6Z" fill="#e0e0e0" fill-rule="nonzero" opacity="1" stroke="none"/>
<path d="M401.73 70L401.73 82L397.73 82L397.73 77.61L394 77.61L394 82L389.94 82L389.94 70L393.94 70L393.94 74.3L397.67 74.3L397.67 70L401.73 70Z" fill="#e0e0e0" fill-rule="nonzero" opacity="1" stroke="none"/>
<path d="M412.33 70.6C413.102 70.919 413.76 71.4624 414.22 72.16C415.11 73.6326 415.11 75.4774 414.22 76.95C413.758 77.6505 413.101 78.1999 412.33 78.53C411.427 78.9018 410.457 79.0855 409.48 79.07L407.71 79.07L407.71 82L403.71 82L403.71 70L409.41 70C410.416 69.9819 411.413 70.1868 412.33 70.6ZM410.42 75.6C410.69 75.3383 410.839 74.9759 410.83 74.6C410.841 74.2237 410.692 73.8603 410.42 73.6C410.07 73.3218 409.626 73.1893 409.18 73.23L407.75 73.23L407.75 76L409.18 76C409.629 76.0177 410.07 75.8721 410.42 75.59L410.42 75.6Z" fill="#e0e0e0" fill-rule="nonzero" opacity="1" stroke="none"/>
<path d="M546.66 342.51L546.66 360.8L540.49 360.8L540.49 354L534.79 354L534.79 360.74L528.64 360.74L528.64 342.51L534.81 342.51L534.81 349L540.5 349L540.5 342.52L546.66 342.51Z" fill="#e0e0e0" fill-rule="nonzero" opacity="1" stroke="none"/>
<path d="M560 360.3C558.869 360.851 557.617 361.109 556.36 361.05C554.699 361.174 553.053 360.667 551.75 359.63C550.609 358.509 550.017 356.945 550.13 355.35L550.13 351.69L548.13 351.69L548.13 347.42L550.13 347.42L550.13 343.42L556 343.42L556 347.42L558.92 347.42L558.92 351.69L556 351.69L556 355.3C555.984 355.664 556.105 356.021 556.34 356.3C556.568 356.548 556.893 356.683 557.23 356.67C557.707 356.678 558.175 356.539 558.57 356.27L560 360.3Z" fill="#e0e0e0" fill-rule="nonzero" opacity="1" stroke="none"/>
<path d="M584.5 347.83C585.635 349.168 586.195 350.901 586.06 352.65L586.06 360.8L580.16 360.8L580.16 353.67C580.16 352.04 579.63 351.22 578.56 351.22C578.038 351.203 577.54 351.438 577.22 351.85C576.829 352.44 576.65 353.145 576.71 353.85L576.71 360.85L570.8 360.85L570.8 353.73C570.8 352.09 570.26 351.28 569.21 351.28C568.684 351.259 568.179 351.489 567.85 351.9C567.469 352.494 567.294 353.197 567.35 353.9L567.35 360.9L561.44 360.9L561.44 346.58L567.05 346.58L567.05 347.91C568.13 346.849 569.597 346.275 571.11 346.32C571.998 346.309 572.878 346.49 573.69 346.85C574.462 347.204 575.115 347.773 575.57 348.49C576.132 347.794 576.852 347.242 577.67 346.88C578.515 346.5 579.433 346.308 580.36 346.32C581.889 346.232 583.387 346.778 584.5 347.83Z" fill="#e0e0e0" fill-rule="nonzero" opacity="1" stroke="none"/>
<path d="M588.62 341.41L594.52 341.41L594.52 360.8L588.62 360.8L588.62 341.41Z" fill="#e0e0e0" fill-rule="nonzero" opacity="1" stroke="none"/>
<path d="M243.91 140L243.91 151.7L239.91 151.7L239.91 147.43L236.25 147.43L236.25 151.7L232.25 151.7L232.25 140L236.25 140L236.25 144.16L240 144.16L240 140L243.91 140Z" fill="#e0e0e0" fill-rule="nonzero" opacity="1" stroke="none"/>
<path d="M252.49 151.39C251.764 151.747 250.958 151.912 250.15 151.87C249.071 151.942 248.003 151.615 247.15 150.95C246.425 150.186 246.061 149.149 246.15 148.1L246.15 145.75L244.9 145.75L244.9 143L246.15 143L246.15 140.42L249.96 140.42L249.96 143L251.84 143L251.84 145.78L249.96 145.78L249.96 148.1C249.941 148.339 250.017 148.576 250.17 148.76C250.32 148.912 250.526 148.996 250.74 148.99C251.043 148.998 251.34 148.911 251.59 148.74L252.49 151.39Z" fill="#e0e0e0" fill-rule="nonzero" opacity="1" stroke="none"/>
<path d="M268.28 143.37C269.009 144.227 269.369 145.338 269.28 146.46L269.28 151.7L265.48 151.7L265.48 147.11C265.48 146.06 265.13 145.53 264.48 145.53C264.14 145.527 263.819 145.682 263.61 145.95C263.362 146.321 263.246 146.765 263.28 147.21L263.28 151.7L259.5 151.7L259.5 147.11C259.5 146.06 259.15 145.53 258.5 145.53C258.16 145.524 257.837 145.68 257.63 145.95C257.382 146.321 257.266 146.765 257.3 147.21L257.3 151.7L253.5 151.7L253.5 142.51L257.12 142.51L257.12 143.37C257.812 142.693 258.753 142.332 259.72 142.37C260.295 142.362 260.864 142.478 261.39 142.71C261.88 142.951 262.297 143.316 262.6 143.77C262.968 143.343 263.426 143.001 263.94 142.77C264.487 142.524 265.08 142.397 265.68 142.4C266.642 142.361 267.579 142.71 268.28 143.37Z" fill="#e0e0e0" fill-rule="nonzero" opacity="1" stroke="none"/>
<path d="M270.92 139.24L274.72 139.24L274.72 151.7L270.92 151.7L270.92 139.24Z" fill="#e0e0e0" fill-rule="nonzero" opacity="1" stroke="none"/>
</g>
<g id="Untitled_2">
<path d="M279.18 308.21L607.41 308.21L607.41 308.21L607.41 313.71L607.41 313.71L279.18 313.71L279.18 313.71L279.18 308.21L279.18 308.21Z" fill="#2f2e41" fill-rule="nonzero" opacity="1" stroke="none"/>
<path d="M279.18 308.21L607.41 308.21L607.41 308.21L607.41 313.71L607.41 313.71L279.18 313.71L279.18 313.71L279.18 308.21L279.18 308.21Z" fill="#ffffff" fill-rule="nonzero" opacity="0.3" stroke="none"/>
<path d="M391.86 161.67C390.516 160.968 389.392 159.909 388.61 158.61C387.056 155.861 387.056 152.499 388.61 149.75C389.392 148.451 390.516 147.392 391.86 146.69C394.59 145.333 397.775 145.227 400.59 146.4C401.765 146.912 402.795 147.705 403.59 148.71L400.59 151.4C399.67 150.178 398.229 149.46 396.7 149.46C395.86 149.448 395.03 149.652 394.29 150.05C393.599 150.46 393.046 151.065 392.7 151.79C391.939 153.342 391.939 155.158 392.7 156.71C393.069 157.41 393.631 157.99 394.32 158.38C396.469 159.523 399.128 158.953 400.62 157.03L403.62 159.72C402.825 160.725 401.795 161.518 400.62 162.03C397.802 163.183 394.625 163.078 391.89 161.74L391.86 161.67Z" fill="#3abff8" fill-rule="nonzero" opacity="1" stroke="none"/>
<path d="M409 161.66C407.651 160.948 406.521 159.884 405.73 158.58C404.922 157.257 404.51 155.73 404.54 154.18C404.52 152.625 404.932 151.095 405.73 149.76C406.53 148.468 407.658 147.413 409 146.7C411.966 145.22 415.454 145.22 418.42 146.7C419.762 147.413 420.89 148.468 421.69 149.76C422.489 151.094 422.898 152.625 422.87 154.18C422.899 155.729 422.49 157.254 421.69 158.58C420.899 159.884 419.769 160.948 418.42 161.66C415.45 163.12 411.97 163.12 409 161.66ZM416 158.31C416.679 157.911 417.236 157.333 417.61 156.64C418.389 155.089 418.389 153.261 417.61 151.71C417.236 151.019 416.679 150.445 416 150.05C414.594 149.27 412.886 149.27 411.48 150.05C410.81 150.473 410.273 151.076 409.93 151.79C409.149 153.337 409.149 155.163 409.93 156.71C410.301 157.406 410.859 157.984 411.54 158.38C412.942 159.16 414.648 159.16 416.05 158.38L416 158.31Z" fill="#3abff8" fill-rule="nonzero" opacity="1" stroke="none"/>
<path d="M425.29 145.93L433.09 145.93C434.745 145.893 436.387 146.235 437.89 146.93C439.23 147.548 440.365 148.537 441.16 149.78C442.699 152.483 442.699 155.797 441.16 158.5C440.365 159.743 439.23 160.732 437.89 161.35C436.387 162.045 434.745 162.387 433.09 162.35L425.29 162.35L425.29 145.93ZM432.89 158.75C434.143 158.819 435.371 158.383 436.3 157.54C438.028 155.664 438.028 152.776 436.3 150.9C435.369 150.061 434.142 149.625 432.89 149.69L430 149.69L430 158.75L432.89 158.75Z" fill="#3abff8" fill-rule="nonzero" opacity="1" stroke="none"/>
<path d="M444.76 145.93L449.43 145.93L449.43 162.43L444.76 162.43L444.76 145.93Z" fill="#3abff8" fill-rule="nonzero" opacity="1" stroke="none"/>
<path d="M468.46 145.93L468.46 162.43L464.62 162.43L457.32 153.64L457.32 162.43L452.75 162.43L452.75 145.93L456.6 145.93L463.87 154.72L463.87 145.93L468.46 145.93Z" fill="#3abff8" fill-rule="nonzero" opacity="1" stroke="none"/>
<path d="M482.82 153.82L486.93 153.82L486.93 160.66C485.949 161.362 484.852 161.887 483.69 162.21C482.496 162.569 481.257 162.751 480.01 162.75C478.388 162.78 476.784 162.409 475.34 161.67C473.333 160.55 471.853 158.679 471.226 156.467C470.6 154.256 470.878 151.886 472 149.88L472.07 149.75C472.854 148.442 473.991 147.382 475.35 146.69C476.814 145.944 478.437 145.566 480.08 145.59C481.505 145.573 482.918 145.838 484.24 146.37C485.423 146.863 486.472 147.631 487.3 148.61L484.3 151.3C483.3 150.131 481.838 149.459 480.3 149.46C479.032 149.407 477.797 149.873 476.88 150.75C475.987 151.661 475.519 152.906 475.59 154.18C475.57 155.027 475.77 155.864 476.17 156.61C476.544 157.319 477.118 157.903 477.82 158.29C478.567 158.701 479.408 158.908 480.26 158.89C481.129 158.897 481.99 158.713 482.78 158.35L482.82 153.82Z" fill="#3abff8" fill-rule="nonzero" opacity="1" stroke="none"/>
<g opacity="0.2">
<path d="M391.86 161.67C390.516 160.968 389.392 159.909 388.61 158.61C387.056 155.861 387.056 152.499 388.61 149.75C389.392 148.451 390.516 147.392 391.86 146.69C394.59 145.333 397.775 145.227 400.59 146.4C401.765 146.912 402.795 147.705 403.59 148.71L400.59 151.4C399.098 149.477 396.439 148.907 394.29 150.05C393.601 150.462 393.049 151.067 392.7 151.79C391.941 153.346 391.941 155.164 392.7 156.72C393.072 157.415 393.634 157.991 394.32 158.38C395.06 158.778 395.89 158.982 396.73 158.97C398.259 158.97 399.7 158.252 400.62 157.03L403.62 159.72C402.825 160.725 401.795 161.518 400.62 162.03C397.802 163.183 394.625 163.078 391.89 161.74L391.86 161.67Z" fill="#ffffff" fill-rule="nonzero" opacity="1" stroke="none"/>
<path d="M409 161.66C407.651 160.948 406.521 159.884 405.73 158.58C404.922 157.257 404.51 155.73 404.54 154.18C404.52 152.625 404.932 151.095 405.73 149.76C406.53 148.468 407.658 147.413 409 146.7C411.966 145.22 415.454 145.22 418.42 146.7C419.762 147.413 420.89 148.468 421.69 149.76C422.489 151.094 422.898 152.625 422.87 154.18C422.899 155.729 422.49 157.254 421.69 158.58C420.899 159.884 419.769 160.948 418.42 161.66C415.45 163.12 411.97 163.12 409 161.66ZM416 158.31C416.679 157.911 417.236 157.333 417.61 156.64C418.391 155.093 418.391 153.267 417.61 151.72C417.236 151.027 416.679 150.449 416 150.05C414.594 149.27 412.886 149.27 411.48 150.05C410.81 150.473 410.273 151.076 409.93 151.79C409.151 153.341 409.151 155.169 409.93 156.72C410.304 157.411 410.861 157.985 411.54 158.38C412.942 159.16 414.648 159.16 416.05 158.38L416 158.31Z" fill="#ffffff" fill-rule="nonzero" opacity="1" stroke="none"/>
<path d="M425.29 145.93L433.09 145.93C434.745 145.893 436.387 146.235 437.89 146.93C439.23 147.548 440.365 148.537 441.16 149.78C442.699 152.483 442.699 155.797 441.16 158.5C440.365 159.743 439.23 160.732 437.89 161.35C436.389 162.049 434.746 162.391 433.09 162.35L425.29 162.35L425.29 145.93ZM432.89 158.75C434.143 158.819 435.371 158.383 436.3 157.54C438.028 155.664 438.028 152.776 436.3 150.9C435.369 150.061 434.142 149.625 432.89 149.69L430 149.69L430 158.75L432.89 158.75Z" fill="#ffffff" fill-rule="nonzero" opacity="1" stroke="none"/>
<path d="M444.76 145.93L449.43 145.93L449.43 162.43L444.76 162.43L444.76 145.93Z" fill="#ffffff" fill-rule="nonzero" opacity="1" stroke="none"/>
<path d="M468.46 145.93L468.46 162.43L464.62 162.43L457.32 153.64L457.32 162.43L452.75 162.43L452.75 145.93L456.6 145.93L463.87 154.72L463.87 145.93L468.46 145.93Z" fill="#ffffff" fill-rule="nonzero" opacity="1" stroke="none"/>
<path d="M482.82 153.82L486.93 153.82L486.93 160.66C485.949 161.362 484.852 161.887 483.69 162.21C482.498 162.574 481.257 162.756 480.01 162.75C478.388 162.78 476.784 162.409 475.34 161.67C473.333 160.55 471.853 158.679 471.226 156.467C470.6 154.256 470.878 151.886 472 149.88L472.07 149.75C472.854 148.442 473.991 147.382 475.35 146.69C476.814 145.944 478.437 145.566 480.08 145.59C481.505 145.573 482.918 145.838 484.24 146.37C485.423 146.863 486.472 147.631 487.3 148.61L484.3 151.3C483.302 150.129 481.838 149.46 480.3 149.47C479.033 149.409 477.796 149.872 476.88 150.75C475.989 151.663 475.521 152.907 475.59 154.18C475.57 155.03 475.77 155.87 476.17 156.62C476.55 157.325 477.122 157.907 477.82 158.3C478.57 158.701 479.41 158.904 480.26 158.89C481.129 158.897 481.99 158.713 482.78 158.35L482.82 153.82Z" fill="#ffffff" fill-rule="nonzero" opacity="1" stroke="none"/>
</g>
<path d="M475.3 178.14L510.18 178.14C511.566 178.14 512.69 179.264 512.69 180.65L512.69 180.76C512.69 182.146 511.566 183.27 510.18 183.27L475.3 183.27C473.914 183.27 472.79 182.146 472.79 180.76L472.79 180.65C472.79 179.264 473.914 178.14 475.3 178.14Z" fill="#3abff8" fill-rule="nonzero" opacity="1" stroke="none"/>
<path d="M475.3 190.1L568.5 190.1C569.886 190.1 571.01 191.224 571.01 192.61L571.01 192.72C571.01 194.106 569.886 195.23 568.5 195.23L475.3 195.23C473.914 195.23 472.79 194.106 472.79 192.72L472.79 192.61C472.79 191.224 473.914 190.1 475.3 190.1Z" fill="#3abff8" fill-rule="nonzero" opacity="1" stroke="none"/>
<path d="M475.3 200.36L565.63 200.36C567.016 200.36 568.14 201.484 568.14 202.87L568.14 202.98C568.14 204.366 567.016 205.49 565.63 205.49L475.3 205.49C473.914 205.49 472.79 204.366 472.79 202.98L472.79 202.87C472.79 201.484 473.914 200.36 475.3 200.36Z" fill="#3abff8" fill-rule="nonzero" opacity="1" stroke="none"/>
<path d="M475.3 210.61L575.24 210.61C576.626 210.61 577.75 211.734 577.75 213.12L577.75 213.23C577.75 214.616 576.626 215.74 575.24 215.74L475.3 215.74C473.914 215.74 472.79 214.616 472.79 213.23L472.79 213.12C472.79 211.734 473.914 210.61 475.3 210.61Z" fill="#3abff8" fill-rule="nonzero" opacity="1" stroke="none"/>
<path d="M475.3 220.87L566.27 220.87C567.656 220.87 568.78 221.994 568.78 223.38L568.78 223.49C568.78 224.876 567.656 226 566.27 226L475.3 226C473.914 226 472.79 224.876 472.79 223.49L472.79 223.38C472.79 221.994 473.914 220.87 475.3 220.87Z" fill="#3abff8" fill-rule="nonzero" opacity="1" stroke="none"/>
<path d="M475.3 231.12L566.27 231.12C567.656 231.12 568.78 232.244 568.78 233.63L568.78 233.74C568.78 235.126 567.656 236.25 566.27 236.25L475.3 236.25C473.914 236.25 472.79 235.126 472.79 233.74L472.79 233.63C472.79 232.244 473.914 231.12 475.3 231.12Z" fill="#3abff8" fill-rule="nonzero" opacity="1" stroke="none"/>
<path d="M475.3 241.38L572.06 241.38C573.446 241.38 574.57 242.504 574.57 243.89L574.57 244C574.57 245.386 573.446 246.51 572.06 246.51L475.3 246.51C473.914 246.51 472.79 245.386 472.79 244L472.79 243.89C472.79 242.504 473.914 241.38 475.3 241.38Z" fill="#3abff8" fill-rule="nonzero" opacity="1" stroke="none"/>
<path d="M553.91 256.76L475.37 256.76C473.984 256.76 472.86 255.636 472.86 254.25L472.86 254.25C472.86 253.585 473.125 252.948 473.596 252.479C474.067 252.01 474.705 251.747 475.37 251.75L554 251.75C555.382 251.75 556.504 252.868 556.51 254.25L556.51 254.25C556.51 255.636 555.386 256.76 554 256.76L553.91 256.76Z" fill="#3abff8" fill-rule="nonzero" opacity="1" stroke="none"/>
<g opacity="0.3">
<path d="M475.3 178.14L510.18 178.14C511.566 178.14 512.69 179.264 512.69 180.65L512.69 180.76C512.69 182.146 511.566 183.27 510.18 183.27L475.3 183.27C473.914 183.27 472.79 182.146 472.79 180.76L472.79 180.65C472.79 179.264 473.914 178.14 475.3 178.14Z" fill="#ffffff" fill-rule="nonzero" opacity="1" stroke="none"/>
<path d="M475.3 190.1L568.5 190.1C569.886 190.1 571.01 191.224 571.01 192.61L571.01 192.72C571.01 194.106 569.886 195.23 568.5 195.23L475.3 195.23C473.914 195.23 472.79 194.106 472.79 192.72L472.79 192.61C472.79 191.224 473.914 190.1 475.3 190.1Z" fill="#ffffff" fill-rule="nonzero" opacity="1" stroke="none"/>
<path d="M475.3 200.36L565.63 200.36C567.016 200.36 568.14 201.484 568.14 202.87L568.14 202.98C568.14 204.366 567.016 205.49 565.63 205.49L475.3 205.49C473.914 205.49 472.79 204.366 472.79 202.98L472.79 202.87C472.79 201.484 473.914 200.36 475.3 200.36Z" fill="#ffffff" fill-rule="nonzero" opacity="1" stroke="none"/>
<path d="M475.3 210.61L575.24 210.61C576.626 210.61 577.75 211.734 577.75 213.12L577.75 213.23C577.75 214.616 576.626 215.74 575.24 215.74L475.3 215.74C473.914 215.74 472.79 214.616 472.79 213.23L472.79 213.12C472.79 211.734 473.914 210.61 475.3 210.61Z" fill="#ffffff" fill-rule="nonzero" opacity="1" stroke="none"/>
<path d="M475.3 220.87L566.27 220.87C567.656 220.87 568.78 221.994 568.78 223.38L568.78 223.49C568.78 224.876 567.656 226 566.27 226L475.3 226C473.914 226 472.79 224.876 472.79 223.49L472.79 223.38C472.79 221.994 473.914 220.87 475.3 220.87Z" fill="#ffffff" fill-rule="nonzero" opacity="1" stroke="none"/>
<path d="M475.3 231.12L566.27 231.12C567.656 231.12 568.78 232.244 568.78 233.63L568.78 233.74C568.78 235.126 567.656 236.25 566.27 236.25L475.3 236.25C473.914 236.25 472.79 235.126 472.79 233.74L472.79 233.63C472.79 232.244 473.914 231.12 475.3 231.12Z" fill="#ffffff" fill-rule="nonzero" opacity="1" stroke="none"/>
<path d="M475.3 241.38L572.06 241.38C573.446 241.38 574.57 242.504 574.57 243.89L574.57 244C574.57 245.386 573.446 246.51 572.06 246.51L475.3 246.51C473.914 246.51 472.79 245.386 472.79 244L472.79 243.89C472.79 242.504 473.914 241.38 475.3 241.38Z" fill="#ffffff" fill-rule="nonzero" opacity="1" stroke="none"/>
<path d="M553.91 256.76L475.37 256.76C473.984 256.76 472.86 255.636 472.86 254.25L472.86 254.25C472.86 253.585 473.125 252.948 473.596 252.479C474.067 252.01 474.705 251.747 475.37 251.75L554 251.75C555.382 251.75 556.504 252.868 556.51 254.25L556.51 254.25C556.51 255.636 555.386 256.76 554 256.76L553.91 256.76Z" fill="#ffffff" fill-rule="nonzero" opacity="1" stroke="none"/>
</g>
<path d="M330.91 244C356.86 240.88 383.1 238 409.44 237.19C414.61 237.03 419.79 236.99 424.96 237.19L424.96 234.65C402.17 234.08 379.31 236.29 356.88 238.65C348.213 239.55 339.547 240.5 330.88 241.5C330.68 241.49 331.07 244 330.91 244Z" fill="#3abff8" fill-rule="nonzero" opacity="1" stroke="none"/>
<path d="M343.37 248.94C359.8 245.71 376.37 242.72 393.07 241.94C396.35 241.79 399.62 241.73 402.9 241.86L402.9 239.2C388.53 238.61 374.01 240.89 359.81 243.3C354.33 244.247 348.85 245.247 343.37 246.3C343.23 246.32 343.47 248.93 343.37 248.94Z" fill="#3abff8" fill-rule="nonzero" opacity="1" stroke="none"/>
<path d="M311.57 175.83L309.08 176.74L311.57 177.65L311.57 178.59L308 177.24L308 176.24L311.56 174.81L311.57 175.83Z" fill="#407bff" fill-rule="nonzero" opacity="1" stroke="none"/>
<path d="M314.29 173.07L315.29 173.07L312.82 180.12L311.82 180.12L314.29 173.07Z" fill="#3abff8" fill-rule="nonzero" opacity="1" stroke="none"/>
<path d="M319 176.26L319 177.26L315.44 178.61L315.44 177.67L317.93 176.76L315.44 175.85L315.44 174.92L319 176.26Z" fill="#407bff" fill-rule="nonzero" opacity="1" stroke="none"/>
<g opacity="0.2">
<path d="M318.5 186.53L308.32 186.53C307.819 186.44 307.466 185.988 307.5 185.48C307.552 185.051 307.891 184.712 308.32 184.66L318.5 184.66C319.016 184.594 319.489 184.959 319.555 185.475C319.621 185.991 319.256 186.464 318.74 186.53L318.5 186.53Z" fill="#000000" fill-rule="nonzero" opacity="1" stroke="none"/>
<path d="M318.5 192.64L308.32 192.64C307.839 192.552 307.492 192.129 307.5 191.64C307.552 191.211 307.891 190.872 308.32 190.82L318.5 190.82C319.016 190.754 319.489 191.119 319.555 191.635C319.621 192.151 319.256 192.624 318.74 192.69C318.658 192.683 318.578 192.666 318.5 192.64Z" fill="#000000" fill-rule="nonzero" opacity="1" stroke="none"/>
<path d="M318.5 198.79L308.32 198.79C307.839 198.702 307.492 198.279 307.5 197.79C307.571 197.37 307.9 197.041 308.32 196.97L318.5 196.97C319.008 196.936 319.46 197.289 319.55 197.79C319.591 198.286 319.234 198.727 318.74 198.79C318.66 198.8 318.58 198.8 318.5 198.79Z" fill="#000000" fill-rule="nonzero" opacity="1" stroke="none"/>
<path d="M318.5 204.86L308.32 204.86C307.819 204.77 307.466 204.318 307.5 203.81C307.552 203.381 307.891 203.042 308.32 202.99L318.5 202.99C319.016 202.924 319.489 203.289 319.555 203.805C319.621 204.321 319.256 204.794 318.74 204.86L318.5 204.86Z" fill="#000000" fill-rule="nonzero" opacity="1" stroke="none"/>
<path d="M318.5 211L308.32 211C307.801 211 307.38 210.579 307.38 210.06C307.38 209.541 307.801 209.12 308.32 209.12L318.5 209.12C319.019 209.12 319.44 209.541 319.44 210.06C319.44 210.579 319.019 211 318.5 211Z" fill="#000000" fill-rule="nonzero" opacity="1" stroke="none"/>
<path d="M318.5 217.08L308.32 217.08C307.801 217.08 307.38 216.659 307.38 216.14C307.38 215.621 307.801 215.2 308.32 215.2L318.5 215.2C319.019 215.2 319.44 215.621 319.44 216.14C319.44 216.659 319.019 217.08 318.5 217.08Z" fill="#000000" fill-rule="nonzero" opacity="1" stroke="none"/>
<path d="M318.5 223.19L308.32 223.19C307.801 223.19 307.38 222.769 307.38 222.25C307.38 221.731 307.801 221.31 308.32 221.31L318.5 221.31C319.019 221.31 319.44 221.731 319.44 222.25C319.44 222.769 319.019 223.19 318.5 223.19Z" fill="#000000" fill-rule="nonzero" opacity="1" stroke="none"/>
<path d="M318.5 229.3L308.32 229.3C307.801 229.3 307.38 228.879 307.38 228.36C307.38 227.841 307.801 227.42 308.32 227.42L318.5 227.42C319.019 227.42 319.44 227.841 319.44 228.36C319.44 228.879 319.019 229.3 318.5 229.3Z" fill="#000000" fill-rule="nonzero" opacity="1" stroke="none"/>
<path d="M318.5 235.4L308.32 235.4C307.819 235.31 307.466 234.858 307.5 234.35C307.552 233.921 307.891 233.582 308.32 233.53L318.5 233.53C319.016 233.464 319.489 233.829 319.555 234.345C319.621 234.861 319.256 235.334 318.74 235.4L318.5 235.4Z" fill="#000000" fill-rule="nonzero" opacity="1" stroke="none"/>
</g>
<path d="M348 217L327.1 217C326.639 216.932 326.297 216.536 326.297 216.07C326.297 215.604 326.639 215.208 327.1 215.14L348 215.14C348.461 215.208 348.803 215.604 348.803 216.07C348.803 216.536 348.461 216.932 348 217Z" fill="#3abff8" fill-rule="nonzero" opacity="1" stroke="none"/>
<path d="M348 186.53L327.1 186.53C326.599 186.44 326.246 185.988 326.28 185.48C326.332 185.051 326.671 184.712 327.1 184.66L348 184.66C348.248 184.69 348.473 184.818 348.625 185.015C348.777 185.213 348.844 185.463 348.81 185.71C348.759 186.136 348.426 186.474 348 186.53Z" fill="#3abff8" fill-rule="nonzero" opacity="1" stroke="none"/>
<path d="M407.93 217L353.5 217C353.154 217.071 352.797 216.941 352.576 216.665C352.356 216.388 352.31 216.012 352.456 215.69C352.602 215.368 352.917 215.156 353.27 215.14L407.93 215.14C408.42 215.118 408.844 215.477 408.904 215.964C408.965 216.45 408.64 216.902 408.16 217L407.93 217Z" fill="#2f2e41" fill-rule="nonzero" opacity="1" stroke="none"/>
<path d="M414.69 192.64L398.92 192.64C398.422 192.676 397.982 192.316 397.92 191.82C397.879 191.324 398.236 190.883 398.73 190.82C398.806 190.81 398.884 190.81 398.96 190.82L414.73 190.82C414.978 190.789 415.228 190.858 415.425 191.012C415.622 191.166 415.75 191.392 415.78 191.64C415.788 192.129 415.441 192.552 414.96 192.64C414.871 192.654 414.779 192.654 414.69 192.64Z" fill="#263238" fill-rule="nonzero" opacity="0.2" stroke="none"/>
<path d="M362.2 222.25L329.87 222.25C329.351 222.25 328.93 221.829 328.93 221.31C328.93 220.791 329.351 220.37 329.87 220.37L362.2 220.37C362.719 220.37 363.14 220.791 363.14 221.31C363.14 221.829 362.719 222.25 362.2 222.25Z" fill="#2f2e41" fill-rule="nonzero" opacity="1" stroke="none"/>
<path d="M400.7 222.25L368.86 222.25C368.341 222.25 367.92 221.829 367.92 221.31C367.92 220.791 368.341 220.37 368.86 220.37L400.7 220.37C401.219 220.37 401.64 220.791 401.64 221.31C401.64 221.829 401.219 222.25 400.7 222.25Z" fill="#3abff8" fill-rule="nonzero" opacity="1" stroke="none"/>
<path d="M440.26 222.25L405.89 222.25C405.371 222.25 404.95 221.829 404.95 221.31C404.95 220.791 405.371 220.37 405.89 220.37L440.26 220.37C440.779 220.37 441.2 220.791 441.2 221.31C441.2 221.829 440.779 222.25 440.26 222.25Z" fill="#2f2e41" fill-rule="nonzero" opacity="1" stroke="none"/>
<path d="M365.2 228.36L345.75 228.36C345.231 228.36 344.81 227.939 344.81 227.42C344.81 226.901 345.231 226.48 345.75 226.48L365.17 226.48C365.689 226.48 366.11 226.901 366.11 227.42C366.11 227.939 365.689 228.36 365.17 228.36L365.2 228.36Z" fill="#263238" fill-rule="nonzero" opacity="0.2" stroke="none"/>
<path d="M392.67 228.36L371.49 228.36C370.971 228.36 370.55 227.939 370.55 227.42C370.55 226.901 370.971 226.48 371.49 226.48L392.67 226.48C393.189 226.48 393.61 226.901 393.61 227.42C393.61 227.939 393.189 228.36 392.67 228.36Z" fill="#2f2e41" fill-rule="nonzero" opacity="1" stroke="none"/>
<path d="M431.83 228.36L397.49 228.36C396.971 228.36 396.55 227.939 396.55 227.42C396.55 226.901 396.971 226.48 397.49 226.48L431.83 226.48C432.349 226.48 432.77 226.901 432.77 227.42C432.77 227.939 432.349 228.36 431.83 228.36Z" fill="#263238" fill-rule="nonzero" opacity="0.2" stroke="none"/>
<path d="M356 192.64L329.9 192.64C329.392 192.674 328.94 192.321 328.85 191.82C328.814 191.322 329.174 190.882 329.67 190.82C329.746 190.81 329.824 190.81 329.9 190.82L356 190.82C356.516 190.756 356.986 191.124 357.05 191.64C357.114 192.156 356.746 192.626 356.23 192.69C356.154 192.7 356.076 192.7 356 192.69L356 192.64Z" fill="#263238" fill-rule="nonzero" opacity="0.2" stroke="none"/>
<path d="M359.24 198.79L329.87 198.79C329.354 198.854 328.884 198.486 328.82 197.97C328.756 197.454 329.124 196.984 329.64 196.92L359.24 196.92C359.741 197.01 360.094 197.462 360.06 197.97C360.011 198.401 359.671 198.741 359.24 198.79Z" fill="#3abff8" fill-rule="nonzero" opacity="1" stroke="none"/>
<path d="M408.3 198.79L364 198.79C363.519 198.702 363.172 198.279 363.18 197.79C363.251 197.37 363.58 197.041 364 196.97L408.3 196.97C408.798 196.934 409.238 197.294 409.3 197.79C409.341 198.286 408.984 198.727 408.49 198.79C408.427 198.797 408.363 198.797 408.3 198.79Z" fill="#263238" fill-rule="nonzero" opacity="0.2" stroke="none"/>
<path d="M435 186.53L390.76 186.53C390.252 186.564 389.8 186.211 389.71 185.71C389.676 185.202 390.029 184.75 390.53 184.66L435 184.66C435.516 184.596 435.986 184.964 436.05 185.48C436.114 185.996 435.746 186.466 435.23 186.53L435 186.53Z" fill="#263238" fill-rule="nonzero" opacity="1" stroke="none"/>
<path d="M440.26 198.79L413.67 198.79C413.154 198.856 412.681 198.491 412.615 197.975C412.549 197.459 412.914 196.986 413.43 196.92L440.26 196.92C440.761 197.01 441.114 197.462 441.08 197.97C441.028 198.399 440.689 198.738 440.26 198.79Z" fill="#2f2e41" fill-rule="nonzero" opacity="1" stroke="none"/>
<path d="M356.05 204.86L339.23 204.86C338.711 204.86 338.29 204.439 338.29 203.92C338.29 203.401 338.711 202.98 339.23 202.98L356.05 202.98C356.569 202.98 356.99 203.401 356.99 203.92C356.99 204.439 356.569 204.86 356.05 204.86Z" fill="#263238" fill-rule="nonzero" opacity="0.2" stroke="none"/>
<path d="M394 204.86L361.78 204.86C361.261 204.86 360.84 204.439 360.84 203.92C360.84 203.401 361.261 202.98 361.78 202.98L394 202.98C394.519 202.98 394.94 203.401 394.94 203.92C394.94 204.439 394.519 204.86 394 204.86Z" fill="#263238" fill-rule="nonzero" opacity="0.2" stroke="none"/>
<path d="M385.48 186.53L353.22 186.53C352.719 186.44 352.366 185.988 352.4 185.48C352.449 185.049 352.789 184.709 353.22 184.66L385.48 184.66C385.996 184.596 386.466 184.964 386.53 185.48C386.594 185.996 386.226 186.466 385.71 186.53L385.48 186.53Z" fill="#263238" fill-rule="nonzero" opacity="0.2" stroke="none"/>
<path d="M431.83 204.86L400.33 204.86C399.811 204.86 399.39 204.439 399.39 203.92C399.39 203.401 399.811 202.98 400.33 202.98L431.83 202.98C432.349 202.98 432.77 203.401 432.77 203.92C432.77 204.439 432.349 204.86 431.83 204.86Z" fill="#2f2e41" fill-rule="nonzero" opacity="1" stroke="none"/>
<path d="M393.65 192.64L362.16 192.64C361.679 192.552 361.332 192.129 361.34 191.64C361.392 191.211 361.731 190.872 362.16 190.82L393.65 190.82C394.166 190.756 394.636 191.124 394.7 191.64C394.764 192.156 394.396 192.626 393.88 192.69C393.801 192.684 393.724 192.667 393.65 192.64Z" fill="#2f2e41" fill-rule="nonzero" opacity="1" stroke="none"/>
<path d="M368.41 211L348.6 211C348.081 211 347.66 210.579 347.66 210.06C347.66 209.541 348.081 209.12 348.6 209.12L368.41 209.12C368.929 209.12 369.35 209.541 369.35 210.06C369.35 210.579 368.929 211 368.41 211Z" fill="#2f2e41" fill-rule="nonzero" opacity="1" stroke="none"/>
<path d="M391.33 211L372.49 211C371.971 211 371.55 210.579 371.55 210.06C371.55 209.541 371.971 209.12 372.49 209.12L391.33 209.12C391.849 209.12 392.27 209.541 392.27 210.06C392.27 210.579 391.849 211 391.33 211Z" fill="#263238" fill-rule="nonzero" opacity="0.2" stroke="none"/>
<path d="M431.83 211L397.3 211C396.781 211 396.36 210.579 396.36 210.06C396.36 209.541 396.781 209.12 397.3 209.12L431.83 209.12C432.349 209.12 432.77 209.541 432.77 210.06C432.77 210.579 432.349 211 431.83 211Z" fill="#3abff8" fill-rule="nonzero" opacity="1" stroke="none"/>
<path d="M372.82 234.47L348.6 234.47C348.081 234.47 347.66 234.049 347.66 233.53C347.66 233.011 348.081 232.59 348.6 232.59L372.82 232.59C373.339 232.59 373.76 233.011 373.76 233.53C373.76 234.049 373.339 234.47 372.82 234.47Z" fill="#263238" fill-rule="nonzero" opacity="0.2" stroke="none"/>
<path d="M282.57 160.7L301.27 160.7L301.27 160.7L301.27 174.2L301.27 174.2L282.57 174.2L282.57 174.2L282.57 160.7L282.57 160.7Z" fill="#3abff8" fill-rule="nonzero" opacity="1" stroke="none"/>
<path d="M196.69 166.17L301.27 166.17L301.27 166.17L301.27 241.87L301.27 241.87L196.69 241.87L196.69 241.87L196.69 166.17L196.69 166.17Z" fill="#3abff8" fill-rule="nonzero" opacity="1" stroke="none"/>
<path d="M196.69 166.17L301.27 166.17L301.27 166.17L301.27 241.87L301.27 241.87L196.69 241.87L196.69 241.87L196.69 166.17L196.69 166.17Z" fill="#ffffff" fill-rule="nonzero" opacity="0.7" stroke="none"/>
<path d="M196.69 166.17L211.26 166.17L211.26 166.17L211.26 241.87L211.26 241.87L196.69 241.87L196.69 241.87L196.69 166.17L196.69 166.17Z" fill="#000000" fill-rule="nonzero" opacity="0.1" stroke="none"/>
<path d="M196.69 166L301.27 166L301.27 166L301.27 173.08L301.27 173.08L196.69 173.08L196.69 173.08L196.69 166L196.69 166Z" fill="#3abff8" fill-rule="nonzero" opacity="1" stroke="none"/>
<path d="M295.3 164.15C295.3 163.338 295.958 162.68 296.77 162.68C297.582 162.68 298.24 163.338 298.24 164.15C298.24 164.962 297.582 165.62 296.77 165.62C295.958 165.62 295.3 164.962 295.3 164.15Z" fill="#ffffff" fill-rule="nonzero" opacity="1" stroke="none"/>
<path d="M290.17 164.15C290.17 163.338 290.828 162.68 291.64 162.68C292.452 162.68 293.11 163.338 293.11 164.15C293.11 164.962 292.452 165.62 291.64 165.62C290.828 165.62 290.17 164.962 290.17 164.15Z" fill="#ffffff" fill-rule="nonzero" opacity="1" stroke="none"/>
<path d="M285.04 164.15C285.04 163.338 285.698 162.68 286.51 162.68C287.322 162.68 287.98 163.338 287.98 164.15C287.98 164.962 287.322 165.62 286.51 165.62C285.698 165.62 285.04 164.962 285.04 164.15Z" fill="#ffffff" fill-rule="nonzero" opacity="1" stroke="none"/>
<path d="M228 200.73C227.243 200.424 226.576 199.932 226.06 199.3L228.06 196.89C228.54 197.707 229.386 198.24 230.33 198.32C230.794 198.35 231.247 198.175 231.57 197.84C231.879 197.43 232.031 196.923 232 196.41L232 190.71L227.47 190.71L227.47 187.86L235.73 187.86L235.73 196.2C235.929 197.604 235.461 199.021 234.464 200.029C233.467 201.038 232.056 201.523 230.65 201.34C229.734 201.324 228.831 201.116 228 200.73Z" fill="#2f2e41" fill-rule="nonzero" opacity="1" stroke="none"/>
<path d="M246.85 198.4L241.26 198.4L240.26 200.97L236.46 200.97L242.28 187.76L245.96 187.76L251.77 201L247.89 201L246.85 198.4ZM245.75 195.66L244.05 191.38L242.36 195.66L245.75 195.66Z" fill="#2f2e41" fill-rule="nonzero" opacity="1" stroke="none"/>
<path d="M265.48 187.76L259.78 201L256.1 201L250.41 187.79L254.59 187.79L258.18 196.34L261.84 187.79L265.48 187.76Z" fill="#2f2e41" fill-rule="nonzero" opacity="1" stroke="none"/>
<path d="M274.65 198.4L269.07 198.4L268 201L264.19 201L270.02 187.79L273.69 187.79L279.58 201L275.69 201L274.65 198.4ZM273.55 195.66L271.86 191.38L270.16 195.66L273.55 195.66Z" fill="#2f2e41" fill-rule="nonzero" opacity="1" stroke="none"/>
<path d="M226.11 223.47C225.237 223.269 224.408 222.913 223.66 222.42L224.88 219.66C225.508 220.096 226.2 220.433 226.93 220.66C227.679 220.889 228.457 221.01 229.24 221.02C230.66 221.02 231.38 220.66 231.38 219.93C231.373 219.546 231.125 219.209 230.76 219.09C230.11 218.847 229.441 218.656 228.76 218.52C227.916 218.35 227.084 218.123 226.27 217.84C225.611 217.594 225.024 217.189 224.56 216.66C224.044 216.064 223.77 215.298 223.79 214.51C223.783 213.732 224.017 212.97 224.46 212.33C224.968 211.638 225.661 211.104 226.46 210.79C227.485 210.391 228.58 210.2 229.68 210.23C230.545 210.226 231.408 210.324 232.25 210.52C233.027 210.694 233.775 210.981 234.47 211.37L233.33 214.15C232.22 213.489 230.961 213.121 229.67 213.08C229.107 213.038 228.543 213.152 228.04 213.41C227.729 213.585 227.534 213.913 227.53 214.27C227.543 214.634 227.783 214.95 228.13 215.06C228.778 215.302 229.448 215.483 230.13 215.6C230.976 215.769 231.808 215.999 232.62 216.29C233.28 216.54 233.872 216.941 234.35 217.46C234.853 218.068 235.11 218.842 235.07 219.63C235.077 220.402 234.843 221.157 234.4 221.79C233.899 222.486 233.203 223.018 232.4 223.32C231.387 223.74 230.296 223.941 229.2 223.91C228.155 223.897 227.117 223.749 226.11 223.47Z" fill="#2f2e41" fill-rule="nonzero" opacity="1" stroke="none"/>
<path d="M238.75 223.09C237.892 222.678 237.172 222.025 236.68 221.21C235.924 219.973 235.72 218.476 236.117 217.082C236.514 215.688 237.476 214.523 238.77 213.87C239.707 213.424 240.732 213.195 241.77 213.2C242.82 213.181 243.856 213.444 244.77 213.96C245.582 214.423 246.21 215.15 246.55 216.02L243.79 217.45C243.468 216.617 242.682 216.056 241.79 216.02C241.191 216.003 240.612 216.235 240.19 216.66C239.351 217.706 239.351 219.194 240.19 220.24C240.604 220.679 241.187 220.919 241.79 220.9C242.683 220.867 243.47 220.304 243.79 219.47L246.55 220.9C246.21 221.77 245.582 222.497 244.77 222.96C243.854 223.47 242.818 223.726 241.77 223.7C240.73 223.734 239.696 223.525 238.75 223.09Z" fill="#2f2e41" fill-rule="nonzero" opacity="1" stroke="none"/>
<path d="M252.78 213.56C253.42 213.323 254.097 213.201 254.78 213.2L254.78 216.44C254.51 216.42 254.24 216.42 253.97 216.44C253.286 216.363 252.604 216.605 252.123 217.098C251.643 217.591 251.416 218.278 251.51 218.96L251.51 223.66L247.93 223.66L247.93 213.43L251.34 213.43L251.34 214.66C251.711 214.169 252.209 213.788 252.78 213.56Z" fill="#2f2e41" fill-rule="nonzero" opacity="1" stroke="none"/>
<path d="M256.46 211.71C256.059 211.345 255.84 210.822 255.86 210.28C255.828 209.739 256.05 209.214 256.46 208.86C256.904 208.478 257.475 208.278 258.06 208.3C258.633 208.282 259.194 208.47 259.64 208.83C260.031 209.159 260.248 209.65 260.23 210.16C260.254 210.697 260.038 211.218 259.64 211.58C259.202 211.958 258.638 212.158 258.06 212.14C257.492 212.192 256.925 212.04 256.46 211.71ZM256.26 213.37L259.84 213.37L259.84 223.6L256.26 223.6L256.26 213.37Z" fill="#2f2e41" fill-rule="nonzero" opacity="1" stroke="none"/>
<path d="M271.13 213.86C271.891 214.299 272.517 214.939 272.94 215.71C273.831 217.46 273.831 219.53 272.94 221.28C272.52 222.05 271.893 222.687 271.13 223.12C270.361 223.562 269.487 223.786 268.6 223.77C267.542 223.829 266.508 223.44 265.75 222.7L265.75 227.28L262.16 227.28L262.16 213.39L265.58 213.39L265.58 214.46C266.34 213.616 267.448 213.173 268.58 213.26C269.468 213.234 270.347 213.441 271.13 213.86ZM269.39 220.27C270.19 219.218 270.19 217.762 269.39 216.71C268.991 216.297 268.445 216.059 267.87 216.05C267.296 216.04 266.742 216.26 266.33 216.66L266.33 216.71C265.53 217.762 265.53 219.218 266.33 220.27C266.734 220.679 267.285 220.91 267.86 220.91C268.435 220.91 268.986 220.679 269.39 220.27Z" fill="#2f2e41" fill-rule="nonzero" opacity="1" stroke="none"/>
<path d="M282.33 223.19C281.985 223.391 281.61 223.537 281.22 223.62C280.751 223.73 280.271 223.78 279.79 223.77C278.674 223.833 277.576 223.477 276.71 222.77C275.968 222.014 275.582 220.977 275.65 219.92L275.65 216.49L274.15 216.49L274.15 213.81L275.65 213.81L275.65 211.15L279.22 211.15L279.22 213.81L281.66 213.81L281.66 216.49L279.31 216.49L279.31 219.88C279.29 220.198 279.398 220.511 279.61 220.75C279.818 220.953 280.1 221.061 280.39 221.05C280.781 221.06 281.165 220.948 281.49 220.73L282.33 223.19Z" fill="#2f2e41" fill-rule="nonzero" opacity="1" stroke="none"/>
<path d="M341.61 69.6L358.2 69.6L358.2 69.6L358.2 81.58L358.2 81.58L341.61 81.58L341.61 81.58L341.61 69.6L341.61 69.6Z" fill="#3abff8" fill-rule="nonzero" opacity="1" stroke="none"/>
<path d="M265.45 74.44L358.2 74.44L358.2 74.44L358.2 141.58L358.2 141.58L265.45 141.58L265.45 141.58L265.45 74.44L265.45 74.44Z" fill="#3abff8" fill-rule="nonzero" opacity="1" stroke="none"/>
<path d="M265.45 74.44L358.2 74.44L358.2 74.44L358.2 141.58L358.2 141.58L265.45 141.58L265.45 141.58L265.45 74.44L265.45 74.44Z" fill="#ffffff" fill-rule="nonzero" opacity="0.7" stroke="none"/>
<path d="M265.45 74.44L278.37 74.44L278.37 74.44L278.37 141.58L278.37 141.58L265.45 141.58L265.45 141.58L265.45 74.44L265.45 74.44Z" fill="#000000" fill-rule="nonzero" opacity="0.1" stroke="none"/>
<path d="M265.45 74.3L358.2 74.3L358.2 74.3L358.2 80.58L358.2 80.58L265.45 80.58L265.45 80.58L265.45 74.3L265.45 74.3Z" fill="#3abff8" fill-rule="nonzero" opacity="1" stroke="none"/>
<path d="M352.87 72.66C352.866 73.1867 353.18 73.6638 353.666 73.8681C354.151 74.0725 354.712 73.9638 355.086 73.5928C355.46 73.2218 355.573 72.6619 355.372 72.1748C355.171 71.6878 354.697 71.37 354.17 71.37C353.456 71.37 352.875 71.9459 352.87 72.66Z" fill="#ffffff" fill-rule="nonzero" opacity="1" stroke="none"/>
<path d="M348.36 72.66C348.352 73.1907 348.665 73.6738 349.152 73.8834C349.64 74.0931 350.206 73.9878 350.585 73.6169C350.965 73.2459 351.083 72.6826 350.885 72.1903C350.687 71.698 350.211 71.3741 349.68 71.37L349.68 71.37C349.336 71.3647 349.004 71.4968 348.758 71.7372C348.512 71.9775 348.373 72.3061 348.37 72.65L348.36 72.66Z" fill="#ffffff" fill-rule="nonzero" opacity="1" stroke="none"/>
<path d="M343.82 72.66C343.812 73.0092 343.944 73.3471 344.186 73.5987C344.428 73.8503 344.761 73.9948 345.11 74C345.833 74 346.42 73.4135 346.42 72.69C346.42 71.9665 345.833 71.38 345.11 71.38L345.11 71.38C344.398 71.38 343.82 71.9576 343.82 72.67L343.82 72.66Z" fill="#ffffff" fill-rule="nonzero" opacity="1" stroke="none"/>
<path d="M295.63 104.07L290.35 106L295.63 107.87L295.63 110.29L287.47 107.29L287.47 104.74L295.63 101.74L295.63 104.07Z" fill="#2f2e41" fill-rule="nonzero" opacity="1" stroke="none"/>
<path d="M306.14 103.61C306.871 104.43 307.233 105.515 307.14 106.61L307.14 111.76L304 111.76L304 107.13C304 105.9 303.5 105.29 302.57 105.29C302.084 105.271 301.613 105.465 301.28 105.82C300.923 106.27 300.748 106.837 300.79 107.41L300.79 111.69L297.59 111.69L297.59 99.38L300.74 99.38L300.74 103.53C301.086 103.2 301.498 102.947 301.95 102.79C302.407 102.631 302.887 102.55 303.37 102.55C304.402 102.494 305.409 102.879 306.14 103.61Z" fill="#2f2e41" fill-rule="nonzero" opacity="1" stroke="none"/>
<path d="M318.4 108.06L311.87 108.06C311.992 108.496 312.265 108.875 312.64 109.13C313.07 109.381 313.562 109.509 314.06 109.5C314.445 109.501 314.827 109.437 315.19 109.31C315.533 109.16 315.85 108.958 316.13 108.71L317.79 110.44C316.782 111.449 315.383 111.968 313.96 111.86C313.005 111.882 312.059 111.677 311.2 111.26C310.434 110.904 309.791 110.33 309.35 109.61C308.712 108.587 308.507 107.352 308.781 106.177C309.055 105.003 309.785 103.986 310.81 103.35C310.903 103.291 311 103.237 311.1 103.19C312.678 102.42 314.522 102.42 316.1 103.19C316.816 103.55 317.413 104.109 317.82 104.8C318.27 105.551 318.492 106.416 318.46 107.29C318.46 107.29 318.43 107.63 318.4 108.06ZM312.4 105.21C312.076 105.505 311.858 105.899 311.78 106.33L315.46 106.33C315.389 105.894 315.166 105.497 314.83 105.21C314.491 104.928 314.06 104.782 313.62 104.8C313.169 104.8 312.734 104.968 312.4 105.27L312.4 105.21Z" fill="#2f2e41" fill-rule="nonzero" opacity="1" stroke="none"/>
<path d="M326.89 103.64C327.736 104.448 328.173 105.594 328.08 106.76L328.08 111.76L325.14 111.76L325.14 110.6C324.591 111.519 323.553 112.028 322.49 111.9C321.867 111.916 321.249 111.793 320.68 111.54C320.211 111.32 319.813 110.974 319.53 110.54C319.271 110.112 319.139 109.62 319.15 109.12C319.105 108.323 319.486 107.562 320.15 107.12C321.054 106.583 322.102 106.339 323.15 106.42L324.95 106.42C324.95 105.42 324.26 104.99 323.04 104.99C322.597 105.001 322.156 105.068 321.73 105.19C321.325 105.317 320.943 105.509 320.6 105.76L319.55 103.63C320.105 103.272 320.717 103.012 321.36 102.86C322.062 102.68 322.785 102.589 323.51 102.59C324.727 102.516 325.929 102.89 326.89 103.64ZM324.33 109.64C324.614 109.461 324.826 109.189 324.93 108.87L324.93 108.09L323.58 108.09C322.65 108.09 322.15 108.39 322.15 109C322.143 109.254 322.258 109.496 322.46 109.65C322.71 109.837 323.018 109.929 323.33 109.91C323.703 109.938 324.075 109.843 324.39 109.64L324.33 109.64Z" fill="#2f2e41" fill-rule="nonzero" opacity="1" stroke="none"/>
<path d="M339.74 99.45L339.74 111.75L336.74 111.75L336.74 110.85C336.059 111.569 335.087 111.938 334.1 111.85C333.32 111.858 332.551 111.662 331.87 111.28C331.196 110.9 330.642 110.339 330.27 109.66C329.871 108.906 329.671 108.063 329.69 107.21C329.671 106.357 329.871 105.514 330.27 104.76C330.637 104.08 331.192 103.521 331.87 103.15C332.549 102.764 333.319 102.567 334.1 102.58C335.023 102.521 335.927 102.855 336.59 103.5L336.59 99.45L339.74 99.45ZM336.11 108.83C336.48 108.389 336.669 107.825 336.64 107.25C336.672 106.68 336.486 106.118 336.12 105.68C335.753 105.292 335.233 105.087 334.7 105.12C334.19 105.103 333.698 105.308 333.35 105.68C332.631 106.607 332.631 107.903 333.35 108.83C334.084 109.565 335.276 109.565 336.01 108.83L336.01 108.83L336.11 108.83Z" fill="#2f2e41" fill-rule="nonzero" opacity="1" stroke="none"/>
<path d="M349.88 104.67L349.88 107.22L341.71 110.22L341.71 107.8L347 106L341.72 104.12L341.72 101.7L349.88 104.67Z" fill="#2f2e41" fill-rule="nonzero" opacity="1" stroke="none"/>
<path d="M386.92 274.2L397.49 274.2L397.49 274.2L397.49 281.83L397.49 281.83L386.92 281.83L386.92 281.83L386.92 274.2L386.92 274.2Z" fill="#3abff8" fill-rule="nonzero" opacity="1" stroke="none"/>
<path d="M338.37 277.29L397.5 277.29L397.5 277.29L397.5 320.09L397.5 320.09L338.37 320.09L338.37 320.09L338.37 277.29L338.37 277.29Z" fill="#3abff8" fill-rule="nonzero" opacity="1" stroke="none"/>
<path d="M338.37 277.29L397.5 277.29L397.5 277.29L397.5 320.09L397.5 320.09L338.37 320.09L338.37 320.09L338.37 277.29L338.37 277.29Z" fill="#ffffff" fill-rule="nonzero" opacity="0.7" stroke="none"/>
<path d="M338.37 277.29L346.6 277.29L346.6 277.29L346.6 320.09L346.6 320.09L338.37 320.09L338.37 320.09L338.37 277.29L338.37 277.29Z" fill="#000000" fill-rule="nonzero" opacity="0.1" stroke="none"/>
<path d="M338.37 277.21L397.5 277.21L397.5 277.21L397.5 281.21L397.5 281.21L338.37 281.21L338.37 281.21L338.37 277.21L338.37 277.21Z" fill="#3abff8" fill-rule="nonzero" opacity="1" stroke="none"/>
<path d="M394.11 276.15C394.11 275.692 394.482 275.32 394.94 275.32C395.398 275.32 395.77 275.692 395.77 276.15C395.77 276.608 395.398 276.98 394.94 276.98C394.482 276.98 394.11 276.608 394.11 276.15Z" fill="#ffffff" fill-rule="nonzero" opacity="1" stroke="none"/>
<path d="M391.22 276.15C391.22 275.692 391.592 275.32 392.05 275.32C392.508 275.32 392.88 275.692 392.88 276.15C392.88 276.608 392.508 276.98 392.05 276.98C391.592 276.98 391.22 276.608 391.22 276.15Z" fill="#ffffff" fill-rule="nonzero" opacity="1" stroke="none"/>
<path d="M388.33 276.15C388.33 275.692 388.702 275.32 389.16 275.32C389.618 275.32 389.99 275.692 389.99 276.15C389.99 276.608 389.618 276.98 389.16 276.98C388.702 276.98 388.33 276.608 388.33 276.15Z" fill="#ffffff" fill-rule="nonzero" opacity="1" stroke="none"/>
<path d="M361.24 296.44L358.39 297.44L361.24 298.44L361.24 299.72L357 298.1L357 296.75L361.27 295.15L361.24 296.44Z" fill="#2f2e41" fill-rule="nonzero" opacity="1" stroke="none"/>
<path d="M362.37 294.36L365.22 294.36C365.839 294.34 366.453 294.47 367.01 294.74C367.516 294.96 367.939 295.335 368.22 295.81C368.514 296.298 368.663 296.86 368.65 297.43C368.659 298.003 368.511 298.567 368.22 299.06C367.925 299.523 367.506 299.894 367.01 300.13C366.448 300.383 365.837 300.509 365.22 300.5L362.37 300.5L362.37 294.36ZM365.22 299.11C365.685 299.129 366.14 298.968 366.49 298.66C366.812 298.334 366.982 297.888 366.96 297.43C366.98 296.97 366.81 296.521 366.49 296.19C366.138 295.886 365.685 295.725 365.22 295.74L364.12 295.74L364.12 299.11L365.22 299.11Z" fill="#2f2e41" fill-rule="nonzero" opacity="1" stroke="none"/>
<path d="M369.6 294.36L371.34 294.36L371.34 300.5L369.6 300.5L369.6 294.36Z" fill="#2f2e41" fill-rule="nonzero" opacity="1" stroke="none"/>
<path d="M378.79 294.36L376.16 300.5L374.45 300.5L371.83 294.36L373.71 294.36L375.37 298.36L377.07 294.36L378.79 294.36Z" fill="#2f2e41" fill-rule="nonzero" opacity="1" stroke="none"/>
<path d="M383.51 296.75L383.51 298.1L379.23 299.7L379.23 298.42L382.08 297.42L379.23 296.42L379.23 295.13L383.51 296.75Z" fill="#2f2e41" fill-rule="nonzero" opacity="1" stroke="none"/>
<path d="M619.74 61.98L640.98 61.98L640.98 61.98L640.98 77.31L640.98 77.31L619.74 77.31L619.74 77.31L619.74 61.98L619.74 61.98Z" fill="#3abff8" fill-rule="nonzero" opacity="1" stroke="none"/>
<path d="M522.24 68.18L640.97 68.18L640.97 68.18L640.97 154.13L640.97 154.13L522.24 154.13L522.24 154.13L522.24 68.18L522.24 68.18Z" fill="#3abff8" fill-rule="nonzero" opacity="1" stroke="none"/>
<path d="M522.24 68.18L640.97 68.18L640.97 68.18L640.97 154.13L640.97 154.13L522.24 154.13L522.24 154.13L522.24 68.18L522.24 68.18Z" fill="#ffffff" fill-rule="nonzero" opacity="0.7" stroke="none"/>
<path d="M522.24 68.18L538.78 68.18L538.78 68.18L538.78 154.13L538.78 154.13L522.24 154.13L522.24 154.13L522.24 68.18L522.24 68.18Z" fill="#000000" fill-rule="nonzero" opacity="0.1" stroke="none"/>
<path d="M522.24 67.99L640.97 67.99L640.97 67.99L640.97 76.02L640.97 76.02L522.24 76.02L522.24 76.02L522.24 67.99L522.24 67.99Z" fill="#3abff8" fill-rule="nonzero" opacity="1" stroke="none"/>
<path d="M634.18 65.9C634.18 64.9777 634.928 64.23 635.85 64.23C636.772 64.23 637.52 64.9777 637.52 65.9C637.52 66.8223 636.772 67.57 635.85 67.57C634.928 67.57 634.18 66.8223 634.18 65.9Z" fill="#ffffff" fill-rule="nonzero" opacity="1" stroke="none"/>
<path d="M628.37 65.9C628.37 64.9777 629.118 64.23 630.04 64.23C630.962 64.23 631.71 64.9777 631.71 65.9C631.71 66.8223 630.962 67.57 630.04 67.57C629.118 67.57 628.37 66.8223 628.37 65.9Z" fill="#ffffff" fill-rule="nonzero" opacity="1" stroke="none"/>
<path d="M622.54 65.9C622.54 64.9777 623.288 64.23 624.21 64.23C625.132 64.23 625.88 64.9777 625.88 65.9C625.88 66.8223 625.132 67.57 624.21 67.57C623.288 67.57 622.54 66.8223 622.54 65.9Z" fill="#ffffff" fill-rule="nonzero" opacity="1" stroke="none"/>
<path d="M567.7 103.66C570.609 104.916 572.494 107.781 572.494 110.95C572.494 114.119 570.609 116.984 567.7 118.24C566.024 118.943 564.217 119.284 562.4 119.24L558.47 119.24L558.47 125.13L552.11 125.13L552.11 102.65L562.4 102.65C564.218 102.609 566.024 102.953 567.7 103.66ZM565 113.33C566.335 111.985 566.335 109.815 565 108.47C564.143 107.817 563.073 107.507 562 107.6L558.46 107.6L558.46 114.18L562 114.18C563.07 114.269 564.136 113.967 565 113.33Z" fill="#2f2e41" fill-rule="nonzero" opacity="1" stroke="none"/>
<path d="M596.87 102.65L596.87 125.14L590.5 125.14L590.5 116.36L581.83 116.36L581.83 125.14L575.47 125.14L575.47 102.65L581.83 102.65L581.83 111.09L590.5 111.09L590.5 102.65L596.87 102.65Z" fill="#2f2e41" fill-rule="nonzero" opacity="1" stroke="none"/>
<path d="M617 103.66C618.408 104.249 619.612 105.241 620.46 106.51C621.291 107.829 621.718 109.362 621.69 110.92C621.792 114.086 619.924 116.984 617 118.2C615.323 118.9 613.517 119.241 611.7 119.2L607.77 119.2L607.77 125.08L601.42 125.08L601.42 102.65L611.7 102.65C613.518 102.608 615.325 102.952 617 103.66ZM614.27 113.33C614.956 112.719 615.325 111.827 615.27 110.91C615.331 109.986 614.962 109.085 614.27 108.47C613.41 107.823 612.343 107.513 611.27 107.6L607.74 107.6L607.74 114.18L611.27 114.18C612.323 114.256 613.369 113.954 614.22 113.33L614.27 113.33Z" fill="#2f2e41" fill-rule="nonzero" opacity="1" stroke="none"/>
<path d="M313.7 430.51L612.82 430.51L612.82 430.51L612.82 442.86L612.82 442.86L313.7 442.86L313.7 442.86L313.7 430.51L313.7 430.51Z" fill="#a7a9ac" fill-rule="nonzero" opacity="1" stroke="none"/>
<path d="M326.5 428.3L395.79 428.3L395.79 428.3L395.79 430.51L395.79 430.51L326.5 430.51L326.5 430.51L326.5 428.3L326.5 428.3Z" fill="#2f2e41" fill-rule="nonzero" opacity="1" stroke="none"/>
<path d="M326.5 428.3L395.79 428.3L395.79 428.3L395.79 430.51L395.79 430.51L326.5 430.51L326.5 430.51L326.5 428.3L326.5 428.3Z" fill="#000000" fill-rule="nonzero" opacity="0.2" stroke="none"/>
<path d="M602.09 627.59L595.42 627.59L561.38 442.86L577.66 442.86L602.09 627.59Z" fill="#bcbec0" fill-rule="nonzero" opacity="1" stroke="none"/>
<path d="M612.82 500.89L613.75 508.08L674.35 507.63L663.68 493.63L612.82 500.89Z" fill="#bcbec0" fill-rule="nonzero" opacity="1" stroke="none"/>
<path d="M624.17 599.63L576.61 599.63L565.75 494.17C565.75 494.17 560.07 469.36 594.96 463.67L668.11 450.75L668.11 500.37L612.82 500.89L624.17 599.63Z" fill="#2f2e41" fill-rule="nonzero" opacity="1" stroke="none"/>
<path d="M624.68 514.07L636.57 599.63L682.58 599.63L673.79 514.07L624.68 514.07Z" fill="#2f2e41" fill-rule="nonzero" opacity="1" stroke="none"/>
<path d="M644.36 599.63C644.36 599.63 602.9 617.19 608.75 627.63L681 627.63L678.12 599.63L644.36 599.63Z" fill="#3abff8" fill-rule="nonzero" opacity="1" stroke="none"/>
<path d="M644.36 599.63C644.36 599.63 602.9 617.19 608.75 627.63L681 627.63L678.12 599.63L644.36 599.63Z" fill="#000000" fill-rule="nonzero" opacity="0.2" stroke="none"/>
<path d="M608.75 627.59L681.03 627.59L681.03 627.59L681.03 635.6L681.03 635.6L608.75 635.6L608.75 635.6L608.75 627.59L608.75 627.59Z" fill="#2f2e41" fill-rule="nonzero" opacity="1" stroke="none"/>
<path d="M608.75 627.59L681.03 627.59L681.03 627.59L681.03 635.6L681.03 635.6L608.75 635.6L608.75 635.6L608.75 627.59L608.75 627.59Z" fill="#000000" fill-rule="nonzero" opacity="0.2" stroke="none"/>
<path d="M587.8 599.63C587.8 599.63 533.54 620.19 540 630L622 630L618.74 599.67L587.8 599.63Z" fill="#3abff8" fill-rule="nonzero" opacity="1" stroke="none"/>
<path d="M540.03 629.96L621.97 629.96L621.97 629.96L621.97 638.65L621.97 638.65L540.03 638.65L540.03 638.65L540.03 629.96L540.03 629.96Z" fill="#2f2e41" fill-rule="nonzero" opacity="1" stroke="none"/>
<path d="M766.05 518.61L789.17 636.08C789.47 637.572 790.778 638.646 792.3 638.65L792.3 638.65C793.251 638.648 794.152 638.224 794.759 637.492C795.366 636.759 795.615 635.795 795.44 634.86L773.29 518.61L766.05 518.61Z" fill="#bcbec0" fill-rule="nonzero" opacity="1" stroke="none"/>
<path d="M435.83 561.71L443.62 587.71C443.62 587.71 454.07 574.11 465.85 573.61L462 557.46L435.83 561.71Z" fill="#f9b499" fill-rule="nonzero" opacity="1" stroke="none"/>
<path d="M430.35 632.13C427.9 631.76 434.94 629.13 439.93 627.36C442.597 626.41 444.47 623.999 444.73 621.18C445.33 615.687 446.289 610.238 447.6 604.87C448.192 602.403 447.808 599.802 446.53 597.61C444.4 593.97 441.67 588.55 443.62 587.68C443.62 587.68 454.07 573.91 465.85 573.58L481.44 589.17C481.44 589.17 468.5 584.53 460.87 595.81C460.87 595.81 458.99 597.69 455.87 606.58C454.571 610.373 453.568 614.262 452.87 618.21C451.87 623.83 447.64 634.74 430.35 632.13Z" fill="#3abff8" fill-rule="nonzero" opacity="1" stroke="none"/>
<path d="M430.35 632.13C430.35 632.13 427.69 632.51 429.35 634.94C429.895 635.702 430.639 636.301 431.5 636.67C435.84 638.57 451.17 643.67 455.64 622.35C455.64 622.35 462.86 584.35 485.59 594.98C485.59 594.98 484.76 590.83 481.44 589.17C481.44 589.17 465.44 581.95 457.2 603.06C455.21 607.934 453.771 613.016 452.91 618.21C452.91 618.21 451.09 635.45 430.35 632.13Z" fill="#e6e7e8" fill-rule="nonzero" opacity="1" stroke="none"/>
<path d="M438.31 638.59C438.31 638.59 467.51 646.4 472.98 633.79C472.98 633.79 485.26 607.1 485.71 597.02C485.766 595.773 485.01 594.634 483.84 594.2C480.22 592.85 471.67 591.05 464.89 600.46C460.045 606.88 456.866 614.401 455.64 622.35C455.64 622.35 453.08 640.23 438.31 638.59Z" fill="#2f2e41" fill-rule="nonzero" opacity="1" stroke="none"/>
<path d="M385.54 576.13L394.54 590.23C394.54 590.23 404.99 576.62 416.76 576.13L410.76 565.84L385.54 576.13Z" fill="#f9b499" fill-rule="nonzero" opacity="1" stroke="none"/>
<path d="M380.59 634.52C378.14 634.15 385.18 631.52 390.17 629.75C392.84 628.804 394.714 626.391 394.97 623.57C395.572 618.074 396.53 612.622 397.84 607.25C398.431 604.786 398.048 602.188 396.77 600C394.65 596.36 391.91 590.94 393.86 590.07C393.86 590.07 404.6 576.5 416.17 575.76C416.519 575.742 416.859 575.877 417.1 576.13L431.68 591.56C431.68 591.56 418.74 586.92 411.11 598.2C411.11 598.2 409.24 600.08 406.11 608.97C404.811 612.763 403.808 616.652 403.11 620.6C402.12 626.22 397.89 637.14 380.59 634.52Z" fill="#3abff8" fill-rule="nonzero" opacity="1" stroke="none"/>
<path d="M380.59 634.52C380.59 634.52 377.93 634.9 379.59 637.33C380.135 638.092 380.879 638.691 381.74 639.06C386.08 640.96 401.41 646.06 405.89 624.74C405.89 624.74 413.1 586.74 435.83 597.37C435.83 597.37 435 593.22 431.68 591.56C431.68 591.56 415.68 584.34 407.44 605.45C405.45 610.324 404.011 615.406 403.15 620.6C403.15 620.6 401.33 637.84 380.59 634.52Z" fill="#e6e7e8" fill-rule="nonzero" opacity="1" stroke="none"/>
<path d="M388.56 641C388.56 641 417.75 648.81 423.22 636.2C423.22 636.2 435.5 609.51 435.95 599.43C436.006 598.183 435.25 597.044 434.08 596.61C430.46 595.26 421.91 593.46 415.14 602.87C410.292 609.289 407.114 616.81 405.89 624.76C405.89 624.76 403.32 642.62 388.56 641Z" fill="#2f2e41" fill-rule="nonzero" opacity="1" stroke="none"/>
<path d="M649.18 318.37L669.52 318.37L669.52 318.37L669.52 342L669.52 342L649.18 342L649.18 342L649.18 318.37L649.18 318.37Z" fill="#f9b499" fill-rule="nonzero" opacity="1" stroke="none"/>
<path d="M643.303 336.441C635.737 336.141 629.925 327.806 630.32 317.823C630.716 307.84 637.17 299.99 644.736 300.29C652.302 300.59 658.115 308.926 657.719 318.909C657.323 328.892 650.869 336.741 643.303 336.441Z" fill="#f9b499" fill-rule="nonzero" opacity="1" stroke="none"/>
<path d="M649.18 335C651.622 333.919 653.575 331.97 654.66 329.53C654.66 329.53 658.45 338.59 649.18 342.01L649.18 335Z" fill="#f7a48b" fill-rule="nonzero" opacity="1" stroke="none"/>
<path d="M631.15 312.57C631.15 312.57 611.32 301.92 633.07 291.45C633.07 291.45 626.63 289.24 629.25 287.83C629.25 287.83 653.61 266.28 663.48 283.4C663.48 283.4 692.48 290.4 683.22 309.58C683.22 309.58 686.04 312.87 681.41 318.37L669.52 329.52C668.206 327.425 666.51 325.597 664.52 324.13C662.448 322.609 660.101 321.503 657.61 320.87C651.61 319.98 646.44 319.15 644.86 310.33C644.4 307.74 641.27 306.47 638.69 307.03C636.36 307.54 633.62 309 631.15 312.57Z" fill="#2f2e41" fill-rule="nonzero" opacity="1" stroke="none"/>
<path d="M648.06 316.5C648.06 313.832 649.591 311.67 651.48 311.67C653.369 311.67 654.9 313.832 654.9 316.5C654.9 319.168 653.369 321.33 651.48 321.33C649.591 321.33 648.06 319.168 648.06 316.5Z" fill="#f9b499" fill-rule="nonzero" opacity="1" stroke="none"/>
<path d="M642.34 289C642.34 289 634.42 287.26 637.97 281.59C637.97 281.59 656.23 269.07 663.48 283.37C663.48 283.37 681.13 286.99 684.59 298.97C684.59 298.97 679.65 301.54 678.59 303.83C678.204 304.772 677.617 305.618 676.87 306.31C675.68 307.31 673.87 308.01 672.01 305.95C671.444 305.302 671 304.557 670.7 303.75C670.225 302.14 668.795 300.998 667.12 300.89C667.12 300.89 659.26 315.89 653.83 305.37C653.83 305.37 650.83 298.27 645.77 298.27C645.77 298.27 635.1 301.89 636.1 296.27C636.09 296.28 636.09 291.65 642.34 289Z" fill="#000000" fill-rule="nonzero" opacity="0.2" stroke="none"/>
<path d="M665.22 324.68C665.22 324.68 668.52 323.55 669.52 318.37C669.52 318.37 672.72 320.8 672.13 327.07L669.52 329.52C668.951 328.593 668.298 327.719 667.57 326.91C666.85 326.103 666.064 325.357 665.22 324.68Z" fill="#000000" fill-rule="nonzero" opacity="0.2" stroke="none"/>
<path d="M93.05 336C95.2417 338.519 98.1816 340.271 101.44 341L106.87 326.62L102.19 326.62C102.19 326.62 100 333.56 93.05 336Z" fill="#f9b499" fill-rule="nonzero" opacity="1" stroke="none"/>
<path d="M193.45 552.77L216 549.69C216 549.69 216.68 579.93 228.75 589.39C228.75 589.39 225.75 600.1 211.75 590.48C211.75 590.48 206.94 586.72 205.63 577.98C205.63 577.98 205.95 567.91 201.32 562.33L193.45 552.77Z" fill="#f9b499" fill-rule="nonzero" opacity="1" stroke="none"/>
<path d="M193.45 552.99L216.86 559.89L216.02 549.91L193.45 552.99Z" fill="#f7a48b" fill-rule="nonzero" opacity="1" stroke="none"/>
<path d="M146.39 394.18C143.89 417.07 148.87 557.9 148.87 557.9C137.43 561.38 109.06 560.9 109.06 560.9C88.16 385.24 99.16 349.9 99.16 349.9L137.09 337C154.16 340.52 163.89 337 163.89 337L179.48 346.9L193.16 411.1L221.52 548.93L177.84 554.93C172.06 540.24 147.18 398.74 146.41 394.32L146.39 394.18Z" fill="#2f2e41" fill-rule="nonzero" opacity="1" stroke="none"/>
<path d="M221.52 548.93L177.84 554.93C172.06 540.24 147.18 398.74 146.41 394.32L176.66 514.32C176.66 514.32 183.66 538.13 198.52 541.64L221.52 548.93Z" fill="#000000" fill-rule="nonzero" opacity="0.2" stroke="none"/>
<path d="M137.08 337C137.08 337 152.75 340.43 163.89 337C163.89 337 169.99 274.51 155.18 241.53L151.89 241.21L155.18 250.87L129.42 252L121.34 241.55C119.908 241.401 118.466 241.381 117.03 241.49L134.28 273.06C134.28 273.06 139.56 280.43 138.28 301.75C138.28 301.75 139.88 308.82 138.49 322.89L137.08 337Z" fill="#e6e7e8" fill-rule="nonzero" opacity="1" stroke="none"/>
<path d="M246.69 271.65C246.69 271.65 208.96 321.65 196.89 314.45C196.89 314.45 183.8 306.84 180.72 301.78L183.54 351.15C183.54 351.15 169.86 352.7 162.97 351.15C162.97 351.15 166.15 306.09 165.22 295.65L151.94 241.34C157.073 241.149 162.202 241.791 167.13 243.24C168.13 243.53 169.13 243.86 170.13 244.24C178.902 247.32 186.328 253.359 191.13 261.32L191.13 261.32C195.95 266.24 200.4 271.75 203.05 277.23C203.05 277.23 226.41 257.47 231.54 253.88L246.69 271.65Z" fill="#3abff8" fill-rule="nonzero" opacity="1" stroke="none"/>
<path d="M130.25 209.25C130.25 197.299 138.3 187.61 148.23 187.61C158.16 187.61 166.21 197.299 166.21 209.25C166.21 221.201 158.16 230.89 148.23 230.89C138.3 230.89 130.25 221.201 130.25 209.25Z" fill="#f9b499" fill-rule="nonzero" opacity="1" stroke="none"/>
<path d="M107 243.2C107 243.2 105.73 234.29 113.44 231.1C113.869 230.927 114.253 230.656 114.56 230.31C115.56 229.1 117.28 225.96 113.99 220.9C113.99 220.9 110.25 218.05 113.99 211.9C114.753 210.719 115.671 209.646 116.72 208.71C117.72 207.78 118.89 205.49 115.91 200.6C115.91 200.6 109 180.96 133.3 181.29C133.3 181.29 136.63 169.97 154.3 176.29C154.3 176.29 164.67 181.21 169.06 189.78C171.158 193.939 171.383 198.795 169.68 203.13C168.066 207.309 166.997 211.678 166.5 216.13C166.295 218.164 166.365 220.215 166.71 222.23C167.252 225.117 167.104 228.091 166.28 230.91C166.28 230.91 173.73 235.78 169.41 244.1C163.856 242.031 157.941 241.103 152.02 241.37C152.02 241.37 143.8 238.73 145.56 230.66C145.56 230.66 163.03 233.66 165.72 211.66C166.299 207.339 165.705 202.942 164 198.93C163.604 197.988 163.122 197.084 162.56 196.23C162.56 196.23 160.18 203.23 143.2 201.23C143.2 201.23 141.07 208.84 129.39 207.23L127.51 222.5C127.51 222.5 130.43 238.07 121.31 241.56C121.34 241.58 110.81 241 107 243.2Z" fill="#2f2e41" fill-rule="nonzero" opacity="1" stroke="none"/>
<path d="M117 241.52C117 241.52 125 237.3 125.77 228.03C125.904 226.489 125.36 224.967 124.28 223.86C122.36 221.86 119.7 217.92 123.28 213.05C123.28 213.05 122.28 220.22 127.56 222.52C127.56 222.52 130.81 237.1 121.36 241.58L117 241.52Z" fill="#000000" fill-rule="nonzero" opacity="0.2" stroke="none"/>
<path d="M130.25 207.25C130.25 207.25 131.12 200.94 127.14 198.78C127.14 198.78 116.69 192.69 123.99 187.61C123.99 187.61 129.76 183.03 137.32 189.31C137.464 189.435 137.675 189.447 137.833 189.339C137.99 189.231 138.055 189.03 137.99 188.85C137.06 186.2 136.65 181.51 144.23 179.54C144.23 179.54 140.75 182.69 142.37 185.08C142.543 185.331 142.885 185.398 143.14 185.23C145.06 183.95 153.34 179.04 159.32 185.01C159.32 185.01 166.54 189.81 165 200.6C164.452 199.017 163.637 197.539 162.59 196.23C162.59 196.23 159.32 203.73 143.23 201.23C143.23 201.26 140 209.41 130.25 207.25Z" fill="#000000" fill-rule="nonzero" opacity="0.2" stroke="none"/>
<path d="M127.54 222.52C127.54 222.52 130.25 237.96 121.34 241.58L129.42 252L155.18 250.83L151.89 241.17C151.89 241.17 144.57 239.36 145.48 230.6C140.226 229.379 135.761 225.939 133.24 221.17C133.24 221.17 130.46 223.81 127.54 222.52Z" fill="#f9b499" fill-rule="nonzero" opacity="1" stroke="none"/>
<path d="M134.28 222.89C134.28 222.89 135.54 237.29 146.38 236.61C146.38 236.61 145.1 234.61 145.48 230.61C145.48 230.63 137 228.51 134.28 222.89Z" fill="#f7a48b" fill-rule="nonzero" opacity="1" stroke="none"/>
<path d="M121.34 241.58L131.12 248.87L155.18 250.87L129.42 252.03L121.34 241.58Z" fill="#f7a48b" fill-rule="nonzero" opacity="1" stroke="none"/>
<path d="M172.09 260L178.56 265.14C178.56 265.14 172.56 288.86 165.22 295.66L167.12 266.3L163 258L167.16 243.24C168.16 243.53 169.16 243.86 170.16 244.24L178.59 258.83L172.09 260Z" fill="#000000" fill-rule="nonzero" opacity="0.2" stroke="none"/>
<path d="M135.29 351.84L99.16 349.84C100.24 341.11 109.87 319.55 109.87 319.55C113.22 308.25 102.17 286.44 102.17 286.44L87.8 299.05L93 306.74L93 306.74L102 320.19C103.008 321.699 103.262 323.588 102.69 325.31C99.84 333.82 93.77 336.26 89.69 336.9C87.2826 337.257 84.8508 336.431 83.16 334.68C64.85 315.94 60.16 297.51 60.16 297.51C53.41 282.39 98 246.8 98 246.8L121.38 253.61C126.18 257.72 128.13 271.61 128.13 271.61L138.31 301.74C141 310.43 135.29 351.84 135.29 351.84Z" fill="#3abff8" fill-rule="nonzero" opacity="1" stroke="none"/>
<path d="M102.67 325.32C99.82 333.83 93.75 336.27 89.67 336.91C87.2626 337.267 84.8308 336.441 83.14 334.69C83.14 334.69 100.08 333.96 99.21 320.87L93 306.75L102 320.2C103.001 321.712 103.248 323.601 102.67 325.32Z" fill="#000000" fill-rule="nonzero" opacity="0.2" stroke="none"/>
<path d="M110.65 328.57L112.44 323.95L128.08 321.87L126.82 326.61L110.65 328.57Z" fill="#000000" fill-rule="nonzero" opacity="0.2" stroke="none"/>
<path d="M173.42 322.92L173.42 326.61L182.25 328.57L182.06 325.22L173.42 322.92Z" fill="#000000" fill-rule="nonzero" opacity="0.2" stroke="none"/>
<path d="M87.8 299.05L79.8 295.65C79.8 295.65 88.27 295.96 102.13 286.47L87.8 299.05Z" fill="#000000" fill-rule="nonzero" opacity="0.2" stroke="none"/>
<path d="M231.54 253.88C218.09 267.51 202.02 289.88 202.02 289.88C202.31 283.88 191.46 262.01 191.14 261.34C195.96 266.26 200.4 271.76 203.05 277.25C203.05 277.23 226.41 257.46 231.54 253.88Z" fill="#000000" fill-rule="nonzero" opacity="0.2" stroke="none"/>
<path d="M137.08 337C137.08 337 140.27 311.72 138.26 301.79C138.26 301.79 140.73 297.07 151.39 298.37C153.741 298.7 156.042 299.321 158.24 300.22C160.484 301.167 163.021 301.134 165.24 300.13C165.24 300.13 165.61 323.13 163.87 337C155.067 339.128 145.883 339.128 137.08 337Z" fill="#d1d3d4" fill-rule="nonzero" opacity="1" stroke="none"/>
<path d="M136.47 560C134.91 583.93 128.58 592.29 124.7 595.2C123.551 596.065 122.07 596.361 120.677 596.003C119.284 595.645 118.13 594.672 117.54 593.36C116.481 590.433 115.993 587.331 116.1 584.22C115.98 573.9 118.87 560.94 118.87 560.94L136.47 560Z" fill="#f9b499" fill-rule="nonzero" opacity="1" stroke="none"/>
<path d="M136.47 605.65C135.73 616.97 102.08 610.34 102.08 610.34C96.61 608.34 116.08 584.18 116.08 584.18C115.973 587.291 116.461 590.393 117.52 593.32C118.11 594.632 119.264 595.605 120.657 595.963C122.05 596.321 123.531 596.025 124.68 595.16C128.56 592.25 134.89 583.89 136.45 559.96L139.21 559.67C140.46 571.48 136.47 605.65 136.47 605.65Z" fill="#3abff8" fill-rule="nonzero" opacity="1" stroke="none"/>
<path d="M193.45 552.77C193.45 552.77 187.03 553.52 186.71 564.61L193.45 606.34L198.12 606.34L202.36 586C202.36 586 208.88 615.83 241.48 608.65C241.48 608.65 259.82 605.22 252.98 599.41C252.101 598.682 251.079 598.147 249.98 597.84C245.65 596.56 232.09 592.42 228.82 589.42C228.82 589.42 227.82 594.63 218.38 593C218.38 593 207.95 592 206.32 576.7C206.32 576.7 206.32 565.62 201.43 562.36L193.45 552.77Z" fill="#3abff8" fill-rule="nonzero" opacity="1" stroke="none"/>
<path d="M233.84 256.56C233.84 256.56 237.38 256.35 242.95 249.56C245.659 246.938 249.631 246.098 253.17 247.4C253.17 247.4 260.29 248.55 259.98 251.69L259.98 253.9C259.98 253.9 265.54 254.2 262.13 258.23C262.436 259.991 261.561 261.745 259.97 262.56C260.173 263.564 259.952 264.607 259.359 265.442C258.766 266.277 257.855 266.83 256.84 266.97C256.84 266.97 255.84 271.5 251.54 269.16C249.223 268.771 246.857 268.771 244.54 269.16L233.84 256.56Z" fill="#f9b499" fill-rule="nonzero" opacity="1" stroke="none"/>
<path d="M483.13 384.56C478.964 383.67 475.454 380.884 473.64 377.03C473.056 375.926 472.835 374.666 473.01 373.43C473.01 373.43 469.92 375.91 472.47 381.43C472.47 381.43 472.47 381.5 472.47 381.43C471.38 380.03 465.17 371.13 476.63 364.92C476.59 365 475.32 379.61 483.13 384.56Z" fill="none" opacity="1" stroke="#000000" stroke-linecap="butt" stroke-linejoin="miter" stroke-width="1"/>
<path d="M455.17 348.55C455.17 348.55 456.03 341.71 460.33 341.71L474.27 341.71L464.09 356.14L489.36 360.14L489.36 447.28L440.8 447.28L440.8 438.28C440.8 438.28 379 439.71 380.26 428C380.26 428 377.77 418.8 386.73 417.8L419.57 408.6C419.57 408.6 427 360.84 442 356.36C442 356.36 451.7 352.93 455.17 348.55Z" fill="#3abff8" fill-rule="nonzero" opacity="1" stroke="none"/>
<path d="M380.26 428L381.06 430.49L357.19 430.49C357.547 429.824 357.948 429.183 358.39 428.57C360.39 425.66 364.93 420.44 371.49 419.86L379.29 419.37L382.75 419.15C382.75 419.15 378.77 421.65 380.26 428Z" fill="#f9b499" fill-rule="nonzero" opacity="1" stroke="none"/>
<path d="M380.26 428L381.06 430.49L357.19 430.49C357.547 429.824 357.948 429.183 358.39 428.57C358.39 428.57 374.72 428.95 374.78 428.57C374.84 428.19 378 427.45 379.29 419.37L382.75 419.15C382.75 419.15 378.77 421.65 380.26 428Z" fill="#f7a48b" fill-rule="nonzero" opacity="1" stroke="none"/>
<path d="M440.8 438.22C440.8 438.22 451.04 435.74 452.48 395.5C452.48 395.5 452.68 412.7 465.39 421.61L465.39 447.26L440.8 447.26L440.8 438.22Z" fill="#000000" fill-rule="nonzero" opacity="0.2" stroke="none"/>
<path d="M454.8 504.44C435.52 505.29 414.2 500.99 414.2 500.99L431.2 571.17C431.329 571.651 431.224 572.165 430.918 572.558C430.611 572.951 430.138 573.177 429.64 573.17C414.298 573.003 399.019 575.154 384.32 579.55C383.192 579.895 381.971 579.747 380.958 579.144C379.944 578.54 379.233 577.536 379 576.38L375.47 558.98L361.76 491.38C353.2 458.28 393.37 452.32 393.37 452.32C432.42 446.38 440.81 444.88 440.81 444.88L440.81 447.31L454.81 447.31C453.623 454.595 452.832 461.939 452.44 469.31C451.27 491.83 454.8 504.44 454.8 504.44Z" fill="#2f2e41" fill-rule="nonzero" opacity="1" stroke="none"/>
<path d="M414.2 501L431.2 571.18C431.329 571.661 431.224 572.175 430.918 572.568C430.611 572.961 430.138 573.187 429.64 573.18C414.298 573.013 399.019 575.164 384.32 579.56C383.192 579.905 381.971 579.757 380.958 579.154C379.944 578.55 379.233 577.546 379 576.39L375.47 558.99C382.03 548.47 382.75 518.91 382.75 518.91C379.2 482.83 407.68 482.46 407.68 482.46C430.17 483.21 452.43 469.25 452.43 469.25L452.43 469.25C451.27 491.86 454.8 504.47 454.8 504.47C435.52 505.29 414.2 501 414.2 501Z" fill="#000000" fill-rule="nonzero" opacity="0.2" stroke="none"/>
<path d="M430.51 568.33L479.2 566.16L472.58 511L475.34 497.19L454.8 504.49C443.602 504.752 432.404 504.005 421.34 502.26L422.34 534.67L430.51 568.33Z" fill="#2f2e41" fill-rule="nonzero" opacity="1" stroke="none"/>
<path d="M556.58 520.9L582 644C582.301 645.359 583.498 646.332 584.89 646.35L584.89 646.35C585.769 646.349 586.601 645.954 587.159 645.275C587.716 644.595 587.94 643.702 587.77 642.84L563.88 520.9L556.58 520.9Z" fill="#bcbec0" fill-rule="nonzero" opacity="1" stroke="none"/>
<path d="M462 529L485.22 648.27C485.498 649.708 486.755 650.748 488.22 650.75L488.22 650.75C489.131 650.745 489.993 650.336 490.572 649.633C491.152 648.929 491.389 648.005 491.22 647.11L468 523.77C468 523.77 465.94 517.67 463.22 522.44C463.22 522.44 463.16 524.52 459.06 521.34C459.06 521.34 457.94 519.34 445.45 519.22L379.9 514.53C379.9 514.53 374.9 512.22 369.9 517.89C369.9 517.89 366.9 522.06 367.59 531.52L360.49 650.75L366.09 650.75L373.72 527.87C373.72 527.87 373.39 517.87 384.84 519.24L454.73 525.08C454.73 525.08 461.12 524.4 462 529Z" fill="#bcbec0" fill-rule="nonzero" opacity="1" stroke="none"/>
<path d="M465.898 517.869L470.958 518.274L470.958 518.274L460.638 647.274C460.542 648.478 459.488 649.376 458.284 649.28L457.584 649.224C456.38 649.127 455.482 648.073 455.578 646.869L465.898 517.869L465.898 517.869Z" fill="#bcbec0" fill-rule="nonzero" opacity="1" stroke="none"/>
<path d="M332.76 627.59L339.43 627.59L373.46 442.86L357.19 442.86L332.76 627.59Z" fill="#bcbec0" fill-rule="nonzero" opacity="1" stroke="none"/>
<path d="M670.4 514.07L695.15 641.07C695.442 642.566 696.756 643.644 698.28 643.64L698.28 643.64C699.231 643.639 700.131 643.214 700.737 642.481C701.342 641.748 701.589 640.784 701.41 639.85L678.14 514.07L670.4 514.07Z" fill="#bcbec0" fill-rule="nonzero" opacity="1" stroke="none"/>
<path d="M585.46 527.86L579.58 640.22C579.484 642.127 577.909 643.622 576 643.62L576 643.62C575.012 643.619 574.068 643.211 573.391 642.492C572.713 641.773 572.362 640.806 572.42 639.82L579.78 518.61C579.78 518.61 581.04 510.14 591.49 510.88L666.72 516.26C666.72 516.26 669.81 519.19 671.52 519.82L593.74 515.35C593.74 515.35 586.17 514.47 585.46 527.86Z" fill="#bcbec0" fill-rule="nonzero" opacity="1" stroke="none"/>
<path d="M647.28 454.43L644.63 419C644.63 419 641.26 442 619.12 439L572.12 435.17L575.29 408.62L614.15 408.62C614.15 408.62 622.24 349.69 645.23 345.81C645.23 345.81 644.91 339.7 661.74 335.3C661.74 335.3 676.64 331.56 680.2 339.3C680.2 339.3 699.63 342.21 710.64 371.19L710.64 442.87L668.11 450.76L647.28 454.43Z" fill="#3abff8" fill-rule="nonzero" opacity="1" stroke="none"/>
<path d="M644.58 417.65L654.58 393.04C654.58 393.04 665.95 414.13 668.07 425.41C668.07 425.41 665.24 445.61 664.65 451.35L647.24 454.43L644.58 417.65Z" fill="#000000" fill-rule="nonzero" opacity="0.2" stroke="none"/>
<path d="M575.29 408.58L571.02 408.58L567.02 431.91L572.41 431.91L575.29 408.58Z" fill="#f9b499" fill-rule="nonzero" opacity="1" stroke="none"/>
<path d="M123.26 215.07C123.26 210.751 126.018 207.25 129.42 207.25C132.822 207.25 135.58 210.751 135.58 215.07C135.58 219.389 132.822 222.89 129.42 222.89C126.018 222.89 123.26 219.389 123.26 215.07Z" fill="#f9b499" fill-rule="nonzero" opacity="1" stroke="none"/>
<path d="M98 246.8C98 246.8 108.56 240.74 117.08 241.52L134.33 273.09C134.33 273.09 139.63 281.22 138.33 301.79C138.33 301.79 127.26 278.23 118.33 270.44L123.38 261.15L112.17 266.29L98 246.8Z" fill="#3abff8" fill-rule="nonzero" opacity="1" stroke="none"/>
<path d="M98 246.8C98 246.8 108.56 240.74 117.08 241.52L134.33 273.09C134.33 273.09 139.63 281.22 138.33 301.79C138.33 301.79 127.26 278.23 118.33 270.44L123.38 261.15L112.17 266.29L98 246.8Z" fill="#ffffff" fill-rule="nonzero" opacity="0.4" stroke="none"/>
<path d="M165.22 295.65C165.22 295.65 156.33 259.3 151.89 241.2C157.071 240.971 162.258 241.449 167.31 242.62L173.42 258L166.2 258.49L173.42 267.29C173.42 267.29 169.62 286.86 165.22 295.65Z" fill="#3abff8" fill-rule="nonzero" opacity="1" stroke="none"/>
<path d="M165.22 295.65C165.22 295.65 156.33 259.3 151.89 241.2C157.071 240.971 162.258 241.449 167.31 242.62L173.42 258L166.2 258.49L173.42 267.29C173.42 267.29 169.62 286.86 165.22 295.65Z" fill="#ffffff" fill-rule="nonzero" opacity="0.4" stroke="none"/>
<path d="M246.231 271.34L298.693 197.818L298.693 197.818L299.637 198.492L299.637 198.492L247.175 272.014L247.175 272.014L246.231 271.34L246.231 271.34Z" fill="#2f2e41" fill-rule="nonzero" opacity="1" stroke="none"/>
<path d="M253.54 252.69L258.75 257.61C258.928 257.779 259.171 257.862 259.415 257.837C259.659 257.812 259.88 257.682 260.02 257.48C260.5 256.8 260.26 254.67 259.1 252.95" fill="#f9b499" fill-rule="nonzero" opacity="1" stroke="none"/>
<path d="M253.54 252.69C255.393 253.958 257.139 255.377 258.76 256.93C259.45 257.81 259.88 257.26 259.85 256.11C259.796 255.02 259.542 253.948 259.1 252.95C259.914 253.798 260.445 254.878 260.62 256.04C260.666 256.352 260.666 256.668 260.62 256.98C260.583 257.362 260.409 257.717 260.13 257.98C259.788 258.272 259.319 258.367 258.89 258.23C258.685 258.172 258.499 258.062 258.35 257.91L258.04 257.63C256.404 256.113 254.898 254.46 253.54 252.69Z" fill="#f7a48b" fill-rule="nonzero" opacity="1" stroke="none"/>
<path d="M239.44 263.31C239.44 263.31 247.73 263.8 250.22 259.49C250.22 259.49 251.78 257.33 255.76 260.32C254.914 261.356 254.17 262.471 253.54 263.65C253.54 263.65 252.44 264.96 251.32 266.41L249.85 268.92C248.081 268.776 246.301 268.849 244.55 269.14L239.44 263.31Z" fill="#f7a48b" fill-rule="nonzero" opacity="1" stroke="none"/>
<path d="M259.98 262.54L253.81 259.98" fill="#f9b499" fill-rule="nonzero" opacity="1" stroke="none"/>
<path d="M260 262.54C258.859 262.509 257.735 262.258 256.69 261.8C255.63 261.38 254.659 260.762 253.83 259.98C254.972 260.011 256.097 260.265 257.14 260.73C258.2 261.145 259.171 261.76 260 262.54Z" fill="#f7a48b" fill-rule="nonzero" opacity="1" stroke="none"/>
<path d="M256.85 266.95L250.01 262.9" fill="#f9b499" fill-rule="nonzero" opacity="1" stroke="none"/>
<path d="M256.85 267C254.214 266.335 251.832 264.909 250 262.9C252.625 263.558 255.001 264.965 256.84 266.95L256.85 267Z" fill="#f7a48b" fill-rule="nonzero" opacity="1" stroke="none"/>
<path d="M127.35 215.07C127.35 213.303 128.277 211.87 129.42 211.87C130.563 211.87 131.49 213.303 131.49 215.07C131.49 216.837 130.563 218.27 129.42 218.27C128.277 218.27 127.35 216.837 127.35 215.07Z" fill="#f7a48b" fill-rule="nonzero" opacity="1" stroke="none"/>
<path d="M702.46 371.22L800.07 370.77C801.594 370.732 803.081 371.243 804.26 372.21C805.314 373.078 806.023 374.295 806.26 375.64C806.26 375.64 808.12 380.49 798.42 381.24C798.42 381.24 786.85 382.36 782.42 401.02C782.42 401.02 766 460.36 771.97 494.7C771.97 494.7 773.46 503.28 783.17 511.49C783.17 511.49 788.64 515.59 787.17 519.33C787.17 519.33 789.66 522.56 773.73 521.81L682.73 521.61L674.5 507.61L668.26 484.23L670.52 433.47C670.52 433.47 670.36 386.08 702.46 371.22Z" fill="#bcbec0" fill-rule="nonzero" opacity="1" stroke="none"/>
<path d="M455.586 335.711C447.362 334.548 442.112 323.588 443.86 311.232C445.607 298.875 453.69 289.8 461.914 290.963C470.137 292.126 475.387 303.086 473.639 315.443C471.892 327.8 463.809 336.874 455.586 335.711Z" fill="#f9b499" fill-rule="nonzero" opacity="1" stroke="none"/>
<path d="M460.33 326.28L477.96 326.28L477.96 326.28L477.96 341.71L477.96 341.71L460.33 341.71L460.33 341.71L460.33 326.28L460.33 326.28Z" fill="#f9b499" fill-rule="nonzero" opacity="1" stroke="none"/>
<path d="M469.15 331.33C469.129 335.261 467.499 339.012 464.64 341.71L460.33 341.71L460.33 337C460.33 337 466.54 335.21 469.15 331.33Z" fill="#f7a48b" fill-rule="nonzero" opacity="1" stroke="none"/>
<path d="M523.11 373.22C523.11 373.22 498.4 388.28 483.11 384.56L483.11 384.56C478.944 383.67 475.434 380.884 473.62 377.03C473.036 375.926 472.815 374.666 472.99 373.43C472.99 373.43 469.82 375.98 472.56 381.68C472.56 381.68 459.89 378.01 459.34 367.56C459.227 364.487 460.165 361.467 462 359L466.85 352.27L474.25 341.7C474.25 341.7 477.66 335.99 471.73 327.43C471.73 327.43 463.26 313.58 461.99 308.09C461.99 308.09 452.04 303.42 450.56 299.21C450.56 299.21 447.26 303.89 446.34 308.21C446.34 308.21 440.22 300.29 444.45 294.16C444.45 294.16 445.45 291.41 450.74 290.16C452.975 289.665 455.263 289.453 457.55 289.53C460.6 289.684 463.643 289.101 466.42 287.83C466.42 287.83 479.32 279.38 485.88 293.96C485.88 293.96 499.96 291.77 501.22 308.18C501.416 311.024 501.193 313.881 500.56 316.66C498.617 325.106 501.035 333.963 507 340.25C510.596 343.157 513.767 346.553 516.42 350.34C520.58 356.14 524.22 364.1 523.11 373.22Z" fill="#2f2e41" fill-rule="nonzero" opacity="1" stroke="none"/>
<path d="M516.46 350.34C510.251 346.128 504.346 341.483 498.79 336.44C491.97 330.9 495.94 314.09 497.05 309.91C497.249 309.143 497.34 308.352 497.32 307.56C497.16 301.05 494.42 298.56 491.69 297.64C489.135 296.868 486.371 297.789 484.79 299.94C483.506 301.846 481.071 302.607 478.93 301.77C479.38 301.38 479.77 301 480.13 300.64C481.591 299.206 482.176 297.101 481.664 295.119C481.153 293.137 479.622 291.578 477.65 291.03C474.724 290.367 471.68 290.422 468.78 291.19C462.844 292.97 456.469 292.598 450.78 290.14C453.015 289.645 455.303 289.433 457.59 289.51C460.64 289.664 463.683 289.081 466.46 287.81C466.46 287.81 479.36 279.36 485.92 293.94C485.92 293.94 500 291.75 501.26 308.16C501.456 311.004 501.233 313.861 500.6 316.64C498.639 325.085 501.042 333.951 507 340.25C510.61 343.154 513.794 346.551 516.46 350.34Z" fill="#000000" fill-rule="nonzero" opacity="0.2" stroke="none"/>
<path d="M462.01 317.31C462.01 314.681 463.523 312.55 465.39 312.55C467.257 312.55 468.77 314.681 468.77 317.31C468.77 319.939 467.257 322.07 465.39 322.07C463.523 322.07 462.01 319.939 462.01 317.31Z" fill="#f9b499" fill-rule="nonzero" opacity="1" stroke="none"/>
<path d="M704.46 376.61C703.465 379.018 701.443 380.852 698.95 381.61C698.101 381.899 697.216 382.071 696.32 382.12C694.02 382.31 687.93 383.86 683.08 394.34C683.08 394.34 676.67 405.02 671.36 448.53C671.36 448.53 667.36 490.38 674.02 503.32L684.82 514C686.379 515.528 686.623 517.952 685.4 519.76L685.4 519.76C684.683 520.827 683.546 521.538 682.273 521.715C681 521.893 679.711 521.52 678.73 520.69L674.07 516.77C674.07 516.77 675.35 524.6 666.72 516.31L587.8 510.67C587.8 510.67 579.26 512.85 578.8 523.94C578.8 523.94 571.28 525.5 572.18 515.94C572.18 515.94 575.55 502 587.79 500.34L668.1 506.34C668.1 506.34 661.73 505.01 663.1 468.52C663.1 468.52 666.75 419.42 674.71 396.2C674.71 396.2 678.36 379.61 690.8 373.97C690.8 373.97 701.51 368.09 704.37 373.61C704.815 374.554 704.848 375.641 704.46 376.61Z" fill="#d1d3d4" fill-rule="nonzero" opacity="1" stroke="none"/>
<path d="M666.58 635.52L673.09 527.86L678.15 553.86L672.46 635.93C672.355 637.475 671.069 638.674 669.52 638.67L669.52 638.67C668.708 638.655 667.937 638.311 667.383 637.717C666.829 637.124 666.539 636.331 666.58 635.52Z" fill="#bcbec0" fill-rule="nonzero" opacity="1" stroke="none"/>
<path d="M474.28 525.07L575.9 526.3C575.9 526.3 577.23 525.11 577.3 522.05C577.322 518.699 575.734 515.541 573.03 513.56C568.91 510.47 561.77 503.01 561.45 488.26C561.45 488.26 565.96 420.07 573.64 399.26C573.64 399.26 575.9 383 593.51 381.2C593.51 381.2 599.37 379.32 596.93 374.62C595.58 372.176 592.992 370.675 590.2 370.72L489.36 370.72C489.36 370.72 464.36 385.09 463.26 410.99C462.16 436.89 452.61 445.76 456.68 492.28C457.666 505.201 464.057 517.107 474.28 525.07Z" fill="#bcbec0" fill-rule="nonzero" opacity="1" stroke="none"/>
<path d="M494.16 374.77C494.16 374.77 496.31 380.65 487.69 382.57C487.69 382.57 475.74 383.52 469.78 401.97C469.78 401.97 459.59 436.46 458.63 472.86C458.63 472.86 456.69 506.02 472.63 516.86C475.267 518.65 476.044 522.19 474.4 524.92L474.31 525.07C474.31 525.07 471.43 529.14 467.12 522.44C467.12 522.44 465.21 519.08 463.29 522.44C463.29 522.44 462.98 525.55 458.58 521.72C458.58 521.72 455.39 519.56 446.76 519.8L379.97 514.53C376.261 513.344 372.211 514.705 369.97 517.89C369.97 517.89 366.33 529.89 360.85 524.43C360.85 524.43 357.99 520.7 364.21 512.11C364.21 512.11 369.81 503.11 379.94 504.65L456.65 508.88C456.65 508.88 449.14 497.35 453.1 462.18C453.1 462.18 455.38 424.23 464.98 395.76C467.71 387.513 472.86 380.279 479.76 375C485.39 370.77 491.64 368.17 494.16 374.77Z" fill="#d1d3d4" fill-rule="nonzero" opacity="1" stroke="none"/>
<path d="M322.69 390.94L323.06 392.88L361.87 392.88L361.29 390.94L322.69 390.94Z" fill="#3abff8" fill-rule="nonzero" opacity="1" stroke="none"/>
<path d="M323.77 394.84L324.18 396.78L367.93 396.78L367.49 394.84L323.77 394.84Z" fill="#3abff8" fill-rule="nonzero" opacity="1" stroke="none"/>
<path d="M324.38 398.24L324.81 400.18L363.63 400.18L363.18 398.24L324.38 398.24Z" fill="#3abff8" fill-rule="nonzero" opacity="1" stroke="none"/>
<path d="M325.25 402.14L325.67 404.08L369.53 404.08L369.1 402.14L325.25 402.14Z" fill="#3abff8" fill-rule="nonzero" opacity="1" stroke="none"/>
<path d="M326.16 406.2L326.59 408.14L353.57 408.14L353.17 406.2L326.16 406.2Z" fill="#3abff8" fill-rule="nonzero" opacity="1" stroke="none"/>
<path d="M327.03 410.1L327.47 412.04L357.63 412.04L357.18 410.1L327.03 410.1Z" fill="#3abff8" fill-rule="nonzero" opacity="1" stroke="none"/>
<path d="M327.9 413.98L328.35 415.92L367.15 415.92L366.72 413.98L327.9 413.98Z" fill="#3abff8" fill-rule="nonzero" opacity="1" stroke="none"/>
<path d="M328.77 417.85L329.21 419.79L372.99 419.81L372.56 417.87L328.77 417.85Z" fill="#3abff8" fill-rule="nonzero" opacity="1" stroke="none"/>
</g>
</svg>
