<?xml version="1.0" standalone="no"?><svg xmlns:xlink="http://www.w3.org/1999/xlink" xmlns="http://www.w3.org/2000/svg" viewBox="0 0 1000 1666.6916022082914" preserveAspectRatio="xMaxYMax slice"><g transform="scale(2.992264994987956)"><rect x="0" y="0" width="334.20000000000005" height="557" fill="#570df8"/><rect x="0" y="0" width="55.7" height="55.7" fill="#3ea8f8"/><g transform="translate(0,0) scale(2.785) rotate(0)"><rect width="2" height="20" fill="#4196f8"/><rect x="4" width="2" height="20" fill="#4196f8"/><rect x="8" width="2" height="20" fill="#4196f8"/><rect x="12" width="2" height="20" fill="#4196f8"/><rect x="16" width="2" height="20" fill="#4196f8"/></g><rect x="55.7" y="0" width="55.7" height="55.7" fill="#4196f8"/><g transform="translate(55.7,0) scale(2.785) rotate(0)"><rect width="2" height="20" fill="#5616f8"/><rect x="4" width="2" height="20" fill="#5616f8"/><rect x="8" width="2" height="20" fill="#5616f8"/><rect x="12" width="2" height="20" fill="#5616f8"/><rect x="16" width="2" height="20" fill="#5616f8"/></g><rect x="111.4" y="0" width="55.7" height="55.7" fill="#3daaf8"/><g transform="translate(111.4,0) scale(2.785) rotate(0)"><rect width="2" height="20" fill="#4b57f8"/><rect x="4" width="2" height="20" fill="#4b57f8"/><rect x="8" width="2" height="20" fill="#4b57f8"/><rect x="12" width="2" height="20" fill="#4b57f8"/><rect x="16" width="2" height="20" fill="#4b57f8"/></g><rect x="167.1" y="0" width="55.7" height="55.7" fill="#541ff8"/><g transform="translate(167.1,0) scale(2.785) rotate(0)"><rect width="2" height="20" fill="#3ea7f8"/><rect x="4" width="2" height="20" fill="#3ea7f8"/><rect x="8" width="2" height="20" fill="#3ea7f8"/><rect x="12" width="2" height="20" fill="#3ea7f8"/><rect x="16" width="2" height="20" fill="#3ea7f8"/></g><rect x="222.8" y="0" width="55.7" height="55.7" fill="#428df8"/><g transform="translate(222.8,0) scale(2.785) rotate(0)"><rect width="2" height="20" fill="#3fa0f8"/><rect x="4" width="2" height="20" fill="#3fa0f8"/><rect x="8" width="2" height="20" fill="#3fa0f8"/><rect x="12" width="2" height="20" fill="#3fa0f8"/><rect x="16" width="2" height="20" fill="#3fa0f8"/></g><rect x="278.5" y="0" width="55.7" height="55.7" fill="#428ff8"/><g transform="translate(278.5,0) scale(2.785) rotate(0)"><rect width="2" height="20" fill="#4f41f8"/><rect x="4" width="2" height="20" fill="#4f41f8"/><rect x="8" width="2" height="20" fill="#4f41f8"/><rect x="12" width="2" height="20" fill="#4f41f8"/><rect x="16" width="2" height="20" fill="#4f41f8"/></g><rect x="0" y="55.7" width="55.7" height="55.7" fill="#4c4ef8"/><g transform="translate(0,55.7) scale(2.785) rotate(0)"><rect width="2" height="20" fill="#5036f8"/><rect x="4" width="2" height="20" fill="#5036f8"/><rect x="8" width="2" height="20" fill="#5036f8"/><rect x="12" width="2" height="20" fill="#5036f8"/><rect x="16" width="2" height="20" fill="#5036f8"/></g><rect x="55.7" y="55.7" width="55.7" height="55.7" fill="#4c4ef8"/><g transform="translate(55.7,55.7) scale(2.785) rotate(0)"><rect width="2" height="20" fill="#4677f8"/><rect x="4" width="2" height="20" fill="#4677f8"/><rect x="8" width="2" height="20" fill="#4677f8"/><rect x="12" width="2" height="20" fill="#4677f8"/><rect x="16" width="2" height="20" fill="#4677f8"/></g><rect x="111.4" y="55.7" width="55.7" height="55.7" fill="#4385f8"/><g transform="translate(111.4,55.7) scale(2.785) rotate(0)"><rect width="2" height="20" fill="#3cb0f8"/><rect x="4" width="2" height="20" fill="#3cb0f8"/><rect x="8" width="2" height="20" fill="#3cb0f8"/><rect x="12" width="2" height="20" fill="#3cb0f8"/><rect x="16" width="2" height="20" fill="#3cb0f8"/></g><rect x="167.1" y="55.7" width="55.7" height="55.7" fill="#4f3cf8"/><g transform="translate(167.1,55.7) scale(2.785) rotate(0)"><rect width="2" height="20" fill="#476ef8"/><rect x="4" width="2" height="20" fill="#476ef8"/><rect x="8" width="2" height="20" fill="#476ef8"/><rect x="12" width="2" height="20" fill="#476ef8"/><rect x="16" width="2" height="20" fill="#476ef8"/></g><rect x="222.8" y="55.7" width="55.7" height="55.7" fill="#4e45f8"/><g transform="translate(222.8,55.7) scale(2.785) rotate(0)"><rect width="2" height="20" fill="#522af8"/><rect x="4" width="2" height="20" fill="#522af8"/><rect x="8" width="2" height="20" fill="#522af8"/><rect x="12" width="2" height="20" fill="#522af8"/><rect x="16" width="2" height="20" fill="#522af8"/></g><rect x="278.5" y="55.7" width="55.7" height="55.7" fill="#4f3cf8"/><g transform="translate(278.5,55.7) scale(2.785) rotate(0)"><rect width="2" height="20" fill="#3abef8"/><rect x="4" width="2" height="20" fill="#3abef8"/><rect x="8" width="2" height="20" fill="#3abef8"/><rect x="12" width="2" height="20" fill="#3abef8"/><rect x="16" width="2" height="20" fill="#3abef8"/></g><rect x="0" y="111.4" width="55.7" height="55.7" fill="#476cf8"/><g transform="translate(0,111.4) scale(2.785) rotate(0)"><rect width="2" height="20" fill="#457ef8"/><rect x="4" width="2" height="20" fill="#457ef8"/><rect x="8" width="2" height="20" fill="#457ef8"/><rect x="12" width="2" height="20" fill="#457ef8"/><rect x="16" width="2" height="20" fill="#457ef8"/></g><rect x="55.7" y="111.4" width="55.7" height="55.7" fill="#4098f8"/><g transform="translate(55.7,111.4) scale(2.785) rotate(0)"><rect width="2" height="20" fill="#476df8"/><rect x="4" width="2" height="20" fill="#476df8"/><rect x="8" width="2" height="20" fill="#476df8"/><rect x="12" width="2" height="20" fill="#476df8"/><rect x="16" width="2" height="20" fill="#476df8"/></g><rect x="111.4" y="111.4" width="55.7" height="55.7" fill="#5131f8"/><g transform="translate(111.4,111.4) scale(2.785) rotate(0)"><rect width="2" height="20" fill="#3ea7f8"/><rect x="4" width="2" height="20" fill="#3ea7f8"/><rect x="8" width="2" height="20" fill="#3ea7f8"/><rect x="12" width="2" height="20" fill="#3ea7f8"/><rect x="16" width="2" height="20" fill="#3ea7f8"/></g><rect x="167.1" y="111.4" width="55.7" height="55.7" fill="#4483f8"/><g transform="translate(167.1,111.4) scale(2.785) rotate(0)"><rect width="2" height="20" fill="#5327f8"/><rect x="4" width="2" height="20" fill="#5327f8"/><rect x="8" width="2" height="20" fill="#5327f8"/><rect x="12" width="2" height="20" fill="#5327f8"/><rect x="16" width="2" height="20" fill="#5327f8"/></g><rect x="222.8" y="111.4" width="55.7" height="55.7" fill="#4d4bf8"/><g transform="translate(222.8,111.4) scale(2.785) rotate(0)"><rect width="2" height="20" fill="#5229f8"/><rect x="4" width="2" height="20" fill="#5229f8"/><rect x="8" width="2" height="20" fill="#5229f8"/><rect x="12" width="2" height="20" fill="#5229f8"/><rect x="16" width="2" height="20" fill="#5229f8"/></g><rect x="278.5" y="111.4" width="55.7" height="55.7" fill="#3fa3f8"/><g transform="translate(278.5,111.4) scale(2.785) rotate(0)"><rect width="2" height="20" fill="#3cb5f8"/><rect x="4" width="2" height="20" fill="#3cb5f8"/><rect x="8" width="2" height="20" fill="#3cb5f8"/><rect x="12" width="2" height="20" fill="#3cb5f8"/><rect x="16" width="2" height="20" fill="#3cb5f8"/></g><rect x="0" y="167.1" width="55.7" height="55.7" fill="#428ff8"/><g transform="translate(0,167.1) scale(2.785) rotate(0)"><rect width="2" height="20" fill="#4192f8"/><rect x="4" width="2" height="20" fill="#4192f8"/><rect x="8" width="2" height="20" fill="#4192f8"/><rect x="12" width="2" height="20" fill="#4192f8"/><rect x="16" width="2" height="20" fill="#4192f8"/></g><rect x="55.7" y="167.1" width="55.7" height="55.7" fill="#5611f8"/><g transform="translate(55.7,167.1) scale(2.785) rotate(0)"><rect width="2" height="20" fill="#4192f8"/><rect x="4" width="2" height="20" fill="#4192f8"/><rect x="8" width="2" height="20" fill="#4192f8"/><rect x="12" width="2" height="20" fill="#4192f8"/><rect x="16" width="2" height="20" fill="#4192f8"/></g><rect x="111.4" y="167.1" width="55.7" height="55.7" fill="#5710f8"/><g transform="translate(111.4,167.1) scale(2.785) rotate(0)"><rect width="2" height="20" fill="#409bf8"/><rect x="4" width="2" height="20" fill="#409bf8"/><rect x="8" width="2" height="20" fill="#409bf8"/><rect x="12" width="2" height="20" fill="#409bf8"/><rect x="16" width="2" height="20" fill="#409bf8"/></g><rect x="167.1" y="167.1" width="55.7" height="55.7" fill="#4673f8"/><g transform="translate(167.1,167.1) scale(2.785) rotate(0)"><rect width="2" height="20" fill="#551bf8"/><rect x="4" width="2" height="20" fill="#551bf8"/><rect x="8" width="2" height="20" fill="#551bf8"/><rect x="12" width="2" height="20" fill="#551bf8"/><rect x="16" width="2" height="20" fill="#551bf8"/></g><rect x="222.8" y="167.1" width="55.7" height="55.7" fill="#4c53f8"/><g transform="translate(222.8,167.1) scale(2.785) rotate(0)"><rect width="2" height="20" fill="#4963f8"/><rect x="4" width="2" height="20" fill="#4963f8"/><rect x="8" width="2" height="20" fill="#4963f8"/><rect x="12" width="2" height="20" fill="#4963f8"/><rect x="16" width="2" height="20" fill="#4963f8"/></g><rect x="278.5" y="167.1" width="55.7" height="55.7" fill="#5133f8"/><g transform="translate(278.5,167.1) scale(2.785) rotate(0)"><rect width="2" height="20" fill="#5328f8"/><rect x="4" width="2" height="20" fill="#5328f8"/><rect x="8" width="2" height="20" fill="#5328f8"/><rect x="12" width="2" height="20" fill="#5328f8"/><rect x="16" width="2" height="20" fill="#5328f8"/></g><rect x="0" y="222.8" width="55.7" height="55.7" fill="#3daaf8"/><g transform="translate(0,222.8) scale(2.785) rotate(0)"><rect width="2" height="20" fill="#4961f8"/><rect x="4" width="2" height="20" fill="#4961f8"/><rect x="8" width="2" height="20" fill="#4961f8"/><rect x="12" width="2" height="20" fill="#4961f8"/><rect x="16" width="2" height="20" fill="#4961f8"/></g><rect x="55.7" y="222.8" width="55.7" height="55.7" fill="#5130f8"/><g transform="translate(55.7,222.8) scale(2.785) rotate(0)"><rect width="2" height="20" fill="#3bbaf8"/><rect x="4" width="2" height="20" fill="#3bbaf8"/><rect x="8" width="2" height="20" fill="#3bbaf8"/><rect x="12" width="2" height="20" fill="#3bbaf8"/><rect x="16" width="2" height="20" fill="#3bbaf8"/></g><rect x="111.4" y="222.8" width="55.7" height="55.7" fill="#3fa2f8"/><g transform="translate(111.4,222.8) scale(2.785) rotate(0)"><rect width="2" height="20" fill="#4c4ff8"/><rect x="4" width="2" height="20" fill="#4c4ff8"/><rect x="8" width="2" height="20" fill="#4c4ff8"/><rect x="12" width="2" height="20" fill="#4c4ff8"/><rect x="16" width="2" height="20" fill="#4c4ff8"/></g><rect x="167.1" y="222.8" width="55.7" height="55.7" fill="#4f41f8"/><g transform="translate(167.1,222.8) scale(2.785) rotate(0)"><rect width="2" height="20" fill="#5134f8"/><rect x="4" width="2" height="20" fill="#5134f8"/><rect x="8" width="2" height="20" fill="#5134f8"/><rect x="12" width="2" height="20" fill="#5134f8"/><rect x="16" width="2" height="20" fill="#5134f8"/></g><rect x="222.8" y="222.8" width="55.7" height="55.7" fill="#4d48f8"/><g transform="translate(222.8,222.8) scale(2.785) rotate(0)"><rect width="2" height="20" fill="#4675f8"/><rect x="4" width="2" height="20" fill="#4675f8"/><rect x="8" width="2" height="20" fill="#4675f8"/><rect x="12" width="2" height="20" fill="#4675f8"/><rect x="16" width="2" height="20" fill="#4675f8"/></g><rect x="278.5" y="222.8" width="55.7" height="55.7" fill="#4966f8"/><g transform="translate(278.5,222.8) scale(2.785) rotate(0)"><rect width="2" height="20" fill="#4c4ff8"/><rect x="4" width="2" height="20" fill="#4c4ff8"/><rect x="8" width="2" height="20" fill="#4c4ff8"/><rect x="12" width="2" height="20" fill="#4c4ff8"/><rect x="16" width="2" height="20" fill="#4c4ff8"/></g><rect x="0" y="278.5" width="55.7" height="55.7" fill="#5324f8"/><g transform="translate(0,278.5) scale(2.785) rotate(0)"><rect width="2" height="20" fill="#4f3df8"/><rect x="4" width="2" height="20" fill="#4f3df8"/><rect x="8" width="2" height="20" fill="#4f3df8"/><rect x="12" width="2" height="20" fill="#4f3df8"/><rect x="16" width="2" height="20" fill="#4f3df8"/></g><rect x="55.7" y="278.5" width="55.7" height="55.7" fill="#3bbbf8"/><g transform="translate(55.7,278.5) scale(2.785) rotate(0)"><rect width="2" height="20" fill="#3cb2f8"/><rect x="4" width="2" height="20" fill="#3cb2f8"/><rect x="8" width="2" height="20" fill="#3cb2f8"/><rect x="12" width="2" height="20" fill="#3cb2f8"/><rect x="16" width="2" height="20" fill="#3cb2f8"/></g><rect x="111.4" y="278.5" width="55.7" height="55.7" fill="#4a5af8"/><g transform="translate(111.4,278.5) scale(2.785) rotate(0)"><rect width="2" height="20" fill="#457bf8"/><rect x="4" width="2" height="20" fill="#457bf8"/><rect x="8" width="2" height="20" fill="#457bf8"/><rect x="12" width="2" height="20" fill="#457bf8"/><rect x="16" width="2" height="20" fill="#457bf8"/></g><rect x="167.1" y="278.5" width="55.7" height="55.7" fill="#3fa1f8"/><g transform="translate(167.1,278.5) scale(2.785) rotate(0)"><rect width="2" height="20" fill="#4d49f8"/><rect x="4" width="2" height="20" fill="#4d49f8"/><rect x="8" width="2" height="20" fill="#4d49f8"/><rect x="12" width="2" height="20" fill="#4d49f8"/><rect x="16" width="2" height="20" fill="#4d49f8"/></g><rect x="222.8" y="278.5" width="55.7" height="55.7" fill="#3daef8"/><g transform="translate(222.8,278.5) scale(2.785) rotate(0)"><rect width="2" height="20" fill="#4b5af8"/><rect x="4" width="2" height="20" fill="#4b5af8"/><rect x="8" width="2" height="20" fill="#4b5af8"/><rect x="12" width="2" height="20" fill="#4b5af8"/><rect x="16" width="2" height="20" fill="#4b5af8"/></g><rect x="278.5" y="278.5" width="55.7" height="55.7" fill="#4966f8"/><g transform="translate(278.5,278.5) scale(2.785) rotate(0)"><rect width="2" height="20" fill="#3dacf8"/><rect x="4" width="2" height="20" fill="#3dacf8"/><rect x="8" width="2" height="20" fill="#3dacf8"/><rect x="12" width="2" height="20" fill="#3dacf8"/><rect x="16" width="2" height="20" fill="#3dacf8"/></g><rect x="0" y="334.2" width="55.7" height="55.7" fill="#4866f8"/><g transform="translate(0,334.2) scale(2.785) rotate(0)"><rect width="2" height="20" fill="#3abcf8"/><rect x="4" width="2" height="20" fill="#3abcf8"/><rect x="8" width="2" height="20" fill="#3abcf8"/><rect x="12" width="2" height="20" fill="#3abcf8"/><rect x="16" width="2" height="20" fill="#3abcf8"/></g><rect x="55.7" y="334.2" width="55.7" height="55.7" fill="#4291f8"/><g transform="translate(55.7,334.2) scale(2.785) rotate(0)"><rect width="2" height="20" fill="#4387f8"/><rect x="4" width="2" height="20" fill="#4387f8"/><rect x="8" width="2" height="20" fill="#4387f8"/><rect x="12" width="2" height="20" fill="#4387f8"/><rect x="16" width="2" height="20" fill="#4387f8"/></g><rect x="111.4" y="334.2" width="55.7" height="55.7" fill="#3bb9f8"/><g transform="translate(111.4,334.2) scale(2.785) rotate(0)"><rect width="2" height="20" fill="#428cf8"/><rect x="4" width="2" height="20" fill="#428cf8"/><rect x="8" width="2" height="20" fill="#428cf8"/><rect x="12" width="2" height="20" fill="#428cf8"/><rect x="16" width="2" height="20" fill="#428cf8"/></g><rect x="167.1" y="334.2" width="55.7" height="55.7" fill="#4c51f8"/><g transform="translate(167.1,334.2) scale(2.785) rotate(0)"><rect width="2" height="20" fill="#4960f8"/><rect x="4" width="2" height="20" fill="#4960f8"/><rect x="8" width="2" height="20" fill="#4960f8"/><rect x="12" width="2" height="20" fill="#4960f8"/><rect x="16" width="2" height="20" fill="#4960f8"/></g><rect x="222.8" y="334.2" width="55.7" height="55.7" fill="#3f9ff8"/><g transform="translate(222.8,334.2) scale(2.785) rotate(0)"><rect width="2" height="20" fill="#512ff8"/><rect x="4" width="2" height="20" fill="#512ff8"/><rect x="8" width="2" height="20" fill="#512ff8"/><rect x="12" width="2" height="20" fill="#512ff8"/><rect x="16" width="2" height="20" fill="#512ff8"/></g><rect x="278.5" y="334.2" width="55.7" height="55.7" fill="#3ea9f8"/><g transform="translate(278.5,334.2) scale(2.785) rotate(0)"><rect width="2" height="20" fill="#3bb8f8"/><rect x="4" width="2" height="20" fill="#3bb8f8"/><rect x="8" width="2" height="20" fill="#3bb8f8"/><rect x="12" width="2" height="20" fill="#3bb8f8"/><rect x="16" width="2" height="20" fill="#3bb8f8"/></g><rect x="0" y="389.9" width="55.7" height="55.7" fill="#3cb5f8"/><g transform="translate(0,389.9) scale(2.785) rotate(0)"><rect width="2" height="20" fill="#4770f8"/><rect x="4" width="2" height="20" fill="#4770f8"/><rect x="8" width="2" height="20" fill="#4770f8"/><rect x="12" width="2" height="20" fill="#4770f8"/><rect x="16" width="2" height="20" fill="#4770f8"/></g><rect x="55.7" y="389.9" width="55.7" height="55.7" fill="#541ef8"/><g transform="translate(55.7,389.9) scale(2.785) rotate(0)"><rect width="2" height="20" fill="#4868f8"/><rect x="4" width="2" height="20" fill="#4868f8"/><rect x="8" width="2" height="20" fill="#4868f8"/><rect x="12" width="2" height="20" fill="#4868f8"/><rect x="16" width="2" height="20" fill="#4868f8"/></g><rect x="111.4" y="389.9" width="55.7" height="55.7" fill="#4c4ff8"/><g transform="translate(111.4,389.9) scale(2.785) rotate(0)"><rect width="2" height="20" fill="#3ea6f8"/><rect x="4" width="2" height="20" fill="#3ea6f8"/><rect x="8" width="2" height="20" fill="#3ea6f8"/><rect x="12" width="2" height="20" fill="#3ea6f8"/><rect x="16" width="2" height="20" fill="#3ea6f8"/></g><rect x="167.1" y="389.9" width="55.7" height="55.7" fill="#522ef8"/><g transform="translate(167.1,389.9) scale(2.785) rotate(0)"><rect width="2" height="20" fill="#4483f8"/><rect x="4" width="2" height="20" fill="#4483f8"/><rect x="8" width="2" height="20" fill="#4483f8"/><rect x="12" width="2" height="20" fill="#4483f8"/><rect x="16" width="2" height="20" fill="#4483f8"/></g><rect x="222.8" y="389.9" width="55.7" height="55.7" fill="#4193f8"/><g transform="translate(222.8,389.9) scale(2.785) rotate(0)"><rect width="2" height="20" fill="#3dabf8"/><rect x="4" width="2" height="20" fill="#3dabf8"/><rect x="8" width="2" height="20" fill="#3dabf8"/><rect x="12" width="2" height="20" fill="#3dabf8"/><rect x="16" width="2" height="20" fill="#3dabf8"/></g><rect x="278.5" y="389.9" width="55.7" height="55.7" fill="#3abef8"/><g transform="translate(278.5,389.9) scale(2.785) rotate(0)"><rect width="2" height="20" fill="#3bb8f8"/><rect x="4" width="2" height="20" fill="#3bb8f8"/><rect x="8" width="2" height="20" fill="#3bb8f8"/><rect x="12" width="2" height="20" fill="#3bb8f8"/><rect x="16" width="2" height="20" fill="#3bb8f8"/></g><rect x="0" y="445.6" width="55.7" height="55.7" fill="#5612f8"/><g transform="translate(0,445.6) scale(2.785) rotate(0)"><rect width="2" height="20" fill="#4678f8"/><rect x="4" width="2" height="20" fill="#4678f8"/><rect x="8" width="2" height="20" fill="#4678f8"/><rect x="12" width="2" height="20" fill="#4678f8"/><rect x="16" width="2" height="20" fill="#4678f8"/></g><rect x="55.7" y="445.6" width="55.7" height="55.7" fill="#476ef8"/><g transform="translate(55.7,445.6) scale(2.785) rotate(0)"><rect width="2" height="20" fill="#5615f8"/><rect x="4" width="2" height="20" fill="#5615f8"/><rect x="8" width="2" height="20" fill="#5615f8"/><rect x="12" width="2" height="20" fill="#5615f8"/><rect x="16" width="2" height="20" fill="#5615f8"/></g><rect x="111.4" y="445.6" width="55.7" height="55.7" fill="#3abdf8"/><g transform="translate(111.4,445.6) scale(2.785) rotate(0)"><rect width="2" height="20" fill="#4389f8"/><rect x="4" width="2" height="20" fill="#4389f8"/><rect x="8" width="2" height="20" fill="#4389f8"/><rect x="12" width="2" height="20" fill="#4389f8"/><rect x="16" width="2" height="20" fill="#4389f8"/></g><rect x="167.1" y="445.6" width="55.7" height="55.7" fill="#3f9ff8"/><g transform="translate(167.1,445.6) scale(2.785) rotate(0)"><rect width="2" height="20" fill="#5134f8"/><rect x="4" width="2" height="20" fill="#5134f8"/><rect x="8" width="2" height="20" fill="#5134f8"/><rect x="12" width="2" height="20" fill="#5134f8"/><rect x="16" width="2" height="20" fill="#5134f8"/></g><rect x="222.8" y="445.6" width="55.7" height="55.7" fill="#4e47f8"/><g transform="translate(222.8,445.6) scale(2.785) rotate(0)"><rect width="2" height="20" fill="#4e42f8"/><rect x="4" width="2" height="20" fill="#4e42f8"/><rect x="8" width="2" height="20" fill="#4e42f8"/><rect x="12" width="2" height="20" fill="#4e42f8"/><rect x="16" width="2" height="20" fill="#4e42f8"/></g><rect x="278.5" y="445.6" width="55.7" height="55.7" fill="#5611f8"/><g transform="translate(278.5,445.6) scale(2.785) rotate(0)"><rect width="2" height="20" fill="#3fa2f8"/><rect x="4" width="2" height="20" fill="#3fa2f8"/><rect x="8" width="2" height="20" fill="#3fa2f8"/><rect x="12" width="2" height="20" fill="#3fa2f8"/><rect x="16" width="2" height="20" fill="#3fa2f8"/></g><rect x="0" y="501.3" width="55.7" height="55.7" fill="#3ea6f8"/><g transform="translate(0,501.3) scale(2.785) rotate(0)"><rect width="2" height="20" fill="#4099f8"/><rect x="4" width="2" height="20" fill="#4099f8"/><rect x="8" width="2" height="20" fill="#4099f8"/><rect x="12" width="2" height="20" fill="#4099f8"/><rect x="16" width="2" height="20" fill="#4099f8"/></g><rect x="55.7" y="501.3" width="55.7" height="55.7" fill="#522ef8"/><g transform="translate(55.7,501.3) scale(2.785) rotate(0)"><rect width="2" height="20" fill="#4482f8"/><rect x="4" width="2" height="20" fill="#4482f8"/><rect x="8" width="2" height="20" fill="#4482f8"/><rect x="12" width="2" height="20" fill="#4482f8"/><rect x="16" width="2" height="20" fill="#4482f8"/></g><rect x="111.4" y="501.3" width="55.7" height="55.7" fill="#5038f8"/><g transform="translate(111.4,501.3) scale(2.785) rotate(0)"><rect width="2" height="20" fill="#5518f8"/><rect x="4" width="2" height="20" fill="#5518f8"/><rect x="8" width="2" height="20" fill="#5518f8"/><rect x="12" width="2" height="20" fill="#5518f8"/><rect x="16" width="2" height="20" fill="#5518f8"/></g><rect x="167.1" y="501.3" width="55.7" height="55.7" fill="#5132f8"/><g transform="translate(167.1,501.3) scale(2.785) rotate(0)"><rect width="2" height="20" fill="#4b55f8"/><rect x="4" width="2" height="20" fill="#4b55f8"/><rect x="8" width="2" height="20" fill="#4b55f8"/><rect x="12" width="2" height="20" fill="#4b55f8"/><rect x="16" width="2" height="20" fill="#4b55f8"/></g><rect x="222.8" y="501.3" width="55.7" height="55.7" fill="#3cb2f8"/><g transform="translate(222.8,501.3) scale(2.785) rotate(0)"><rect width="2" height="20" fill="#476ef8"/><rect x="4" width="2" height="20" fill="#476ef8"/><rect x="8" width="2" height="20" fill="#476ef8"/><rect x="12" width="2" height="20" fill="#476ef8"/><rect x="16" width="2" height="20" fill="#476ef8"/></g><rect x="278.5" y="501.3" width="55.7" height="55.7" fill="#3dacf8"/><g transform="translate(278.5,501.3) scale(2.785) rotate(0)"><rect width="2" height="20" fill="#476df8"/><rect x="4" width="2" height="20" fill="#476df8"/><rect x="8" width="2" height="20" fill="#476df8"/><rect x="12" width="2" height="20" fill="#476df8"/><rect x="16" width="2" height="20" fill="#476df8"/></g></g></svg>